<?xml version="1.0" encoding="utf-8"?>
<!DOCTYPE svg PUBLIC "-//W3C//DTD SVG 20010904//EN" "http://www.w3.org/TR/2001/REC-SVG-20010904/DTD/svg10.dtd">
<svg version="1.0" xmlns="http://www.w3.org/2000/svg" width="502pt" height="502pt" viewBox="0 0 502 502" style="" preserveAspectRatio="xMidYMid meet">
<g fill="#242425FF">
<path d="M 236.000 61.612 C 191.644 67.007 161.247 79.540 130.728 105.014 C 96.587 133.511 75.465 171.344 67.366 218.506 C 65.009 232.230 65.009 261.770 67.366 275.494 C 72.898 307.712 84.279 334.905 102.595 359.673 C 124.253 388.959 158.533 413.411 194.000 424.874 C 216.624 432.186 232.789 434.420 258.000 433.721 C 292.317 432.768 322.857 423.103 352.000 403.972 C 396.555 374.723 424.704 331.830 434.670 278.000 C 437.424 263.130 437.177 229.285 434.203 213.888 C 427.014 176.666 412.157 146.860 387.620 120.432 C 372.861 104.537 355.545 91.581 335.603 81.513 C 309.848 68.511 284.304 62.177 255.000 61.529 C 246.475 61.340 237.925 61.378 236.000 61.612 M 267.500 78.007 C 281.423 79.512 282.858 79.759 293.000 82.395 C 326.206 91.027 353.179 107.073 376.898 132.303 C 397.453 154.166 411.823 182.726 418.259 214.500 C 421.268 229.359 421.495 263.382 418.681 277.851 C 407.999 332.777 373.756 377.703 324.321 401.650 C 302.067 412.431 283.878 416.861 258.425 417.700 C 227.393 418.724 205.675 414.410 179.500 402.023 C 150.011 388.068 128.280 369.438 110.164 342.582 C 96.811 322.786 88.804 303.137 83.847 278.000 C 80.815 262.625 80.594 234.738 83.380 219.091 C 90.061 181.560 105.101 152.540 131.381 126.470 C 145.231 112.730 157.747 103.757 174.500 95.556 C 204.618 80.813 236.970 74.708 267.500 78.007 "/></g>
<g fill="#242425FF">
<path d="M 244.439 111.534 C 237.190 121.692 234.597 130.134 234.620 143.500 C 234.642 156.096 236.446 162.179 243.183 172.368 L 247.063 178.237 246.782 189.368 C 246.627 195.491 246.226 199.825 245.891 199.000 C 245.556 198.175 244.708 195.700 244.007 193.500 C 238.595 176.533 223.932 163.089 207.566 160.088 C 197.108 158.170 196.998 158.214 197.015 164.250 C 197.081 187.678 212.628 206.018 238.000 212.598 L 246.500 214.802 246.500 231.651 L 246.500 248.500 244.308 242.144 C 239.831 229.163 229.759 216.929 219.164 211.601 C 213.385 208.695 204.210 206.000 200.096 206.000 L 197.000 206.000 197.000 212.395 C 197.000 223.464 201.855 235.812 209.368 243.851 C 215.393 250.297 227.875 257.463 236.500 259.427 C 238.150 259.803 241.198 260.556 243.274 261.100 L 247.048 262.090 246.774 278.795 C 246.597 289.601 246.186 294.794 245.610 293.500 C 245.121 292.400 243.424 288.316 241.840 284.425 C 238.320 275.779 231.343 266.947 224.000 261.839 C 218.279 257.859 205.057 253.000 199.948 253.000 C 197.025 253.000 197.000 253.048 197.000 258.770 C 197.000 270.688 202.747 284.598 211.093 292.881 C 218.969 300.697 230.660 306.453 242.750 308.468 L 247.000 309.176 246.955 313.838 C 246.931 316.402 246.521 334.243 246.045 353.484 C 245.186 388.213 245.364 391.207 248.400 393.235 C 250.639 394.730 253.986 393.951 255.544 391.573 C 256.962 389.409 257.056 384.806 256.414 349.073 C 255.989 325.376 256.064 308.993 256.597 308.983 C 257.094 308.973 260.541 308.321 264.257 307.533 C 279.159 304.375 294.306 292.982 300.120 280.557 C 303.628 273.061 306.363 260.749 305.520 256.253 C 305.005 253.511 304.474 253.000 302.136 253.000 C 297.949 253.000 289.199 255.821 282.681 259.271 C 273.583 264.088 266.777 271.494 261.523 282.295 C 259.035 287.408 257.000 292.134 257.000 292.796 C 257.000 293.458 256.663 294.001 256.250 294.002 C 255.838 294.003 255.725 286.751 256.000 277.886 L 256.500 261.768 263.784 259.921 C 279.502 255.934 293.927 245.485 299.832 233.808 C 303.505 226.545 306.411 214.002 305.520 209.253 C 304.978 206.363 304.541 206.000 301.611 206.000 C 294.723 206.000 280.413 212.309 273.213 218.521 C 266.441 224.363 257.000 240.036 257.000 245.435 C 257.000 246.296 256.663 247.001 256.250 247.001 C 255.838 247.002 255.634 239.690 255.798 230.751 L 256.096 214.500 263.791 212.644 C 287.951 206.815 302.708 190.595 305.448 166.855 C 306.366 158.904 305.640 158.313 296.809 159.818 C 279.171 162.824 266.008 173.552 259.656 190.098 C 258.304 193.619 256.847 197.400 256.418 198.500 C 255.989 199.600 255.771 195.102 255.934 188.505 C 256.228 176.581 256.253 176.472 260.074 170.136 C 266.276 159.852 267.508 155.138 267.428 142.000 C 267.369 132.440 266.964 129.488 265.022 124.500 C 260.963 114.070 254.377 105.000 250.863 105.000 C 249.836 105.000 247.157 107.724 244.439 111.534 "/></g>
<g fill="#242425FF">
<path d="M 279.343 463.250 C 280.028 471.135 279.064 470.734 276.938 462.250 C 275.722 457.401 275.397 457.000 272.673 457.000 L 269.724 457.000 270.341 463.250 C 270.680 466.688 271.257 473.213 271.623 477.750 C 272.260 485.654 272.390 486.000 274.734 486.000 C 277.133 486.000 277.173 485.862 276.858 478.750 C 276.500 470.692 276.976 470.786 279.405 479.250 C 280.872 484.359 281.347 485.000 283.665 485.000 L 286.275 485.000 285.612 476.250 C 284.114 456.487 284.008 456.000 281.227 456.000 C 278.715 456.000 278.713 456.005 279.343 463.250 "/></g>
<g fill="#242425FF">
<path d="M 232.785 466.250 C 232.361 484.441 233.206 487.000 239.632 487.000 C 244.681 487.000 245.780 484.421 246.600 470.653 C 247.174 461.010 247.044 458.641 245.903 457.919 C 242.727 455.908 242.266 457.056 241.385 469.172 C 240.790 477.360 240.091 481.479 239.250 481.756 C 238.294 482.070 238.000 479.203 238.000 469.583 L 238.000 457.000 235.500 457.000 C 233.029 457.000 232.997 457.107 232.785 466.250 "/></g>
<g fill="#242425FF">
<path d="M 205.009 456.489 C 204.330 457.308 203.073 462.669 202.216 468.403 C 200.768 478.091 200.777 479.011 202.352 481.414 C 204.191 484.221 208.648 484.952 210.800 482.800 C 211.733 481.867 212.000 481.978 212.000 483.300 C 212.000 485.529 213.723 485.493 214.371 483.250 C 214.650 482.288 215.176 478.520 215.542 474.879 L 216.205 468.257 213.171 467.812 C 210.754 467.457 210.029 467.780 209.606 469.397 C 209.314 470.515 209.514 471.699 210.049 472.030 C 211.098 472.679 210.235 478.736 208.984 479.510 C 208.568 479.767 207.786 479.420 207.248 478.739 C 206.086 477.269 207.712 462.172 209.238 460.261 C 210.625 458.523 212.000 459.666 212.000 462.559 C 212.000 464.496 212.516 465.000 214.500 465.000 C 216.668 465.000 217.000 464.556 217.000 461.655 C 217.000 459.684 216.249 457.630 215.171 456.655 C 212.896 454.595 206.665 454.494 205.009 456.489 "/></g>
<g fill="#242425FF">
<path d="M 291.000 454.900 C 288.525 455.230 286.536 455.848 286.581 456.272 C 286.625 456.697 287.480 463.256 288.480 470.848 L 290.299 484.650 295.863 483.778 C 298.924 483.298 301.598 482.735 301.805 482.528 C 302.013 482.320 301.871 481.170 301.491 479.970 C 300.932 478.212 300.260 477.898 298.015 478.347 C 295.536 478.843 295.163 478.566 294.615 475.827 C 293.697 471.235 293.789 471.000 296.500 471.000 C 298.500 471.000 299.000 470.500 299.000 468.500 C 299.000 466.389 298.533 466.000 296.000 466.000 C 293.358 466.000 293.000 465.655 293.000 463.108 C 293.000 460.858 293.554 460.078 295.500 459.589 C 297.326 459.131 298.000 458.293 298.000 456.481 C 298.000 455.083 297.454 454.066 296.750 454.150 C 296.063 454.233 293.475 454.570 291.000 454.900 "/></g>
<g fill="#242425FF">
<path d="M 250.750 457.716 C 248.617 458.039 248.000 458.679 248.000 460.566 C 248.000 462.333 248.548 463.000 250.000 463.000 C 251.889 463.000 252.000 463.667 252.000 475.000 L 252.000 487.000 254.857 487.000 L 257.714 487.000 257.226 475.151 C 256.754 463.700 256.810 463.283 258.869 462.745 C 260.353 462.357 261.000 461.399 261.000 459.594 C 261.000 457.237 260.658 457.014 257.250 457.150 C 255.188 457.232 252.263 457.487 250.750 457.716 "/></g>
<g fill="#242425FF">
<path d="M 219.198 470.137 C 218.561 477.967 218.275 484.609 218.563 484.896 C 218.851 485.184 221.417 485.437 224.266 485.460 C 228.256 485.491 229.521 485.129 229.770 483.884 C 229.996 482.763 229.134 482.077 226.951 481.640 L 223.807 481.011 224.529 470.421 C 224.926 464.596 225.307 459.081 225.375 458.165 C 225.457 457.079 224.606 456.396 222.928 456.201 L 220.356 455.902 219.198 470.137 "/></g>
<g fill="#242425FF">
<path d="M 262.677 468.750 C 263.154 482.334 263.739 487.000 264.964 487.000 C 268.366 487.000 268.648 485.960 268.284 474.711 C 267.768 458.725 267.408 457.000 264.587 457.000 C 262.265 457.000 262.264 457.004 262.677 468.750 "/></g>
<g fill="#DDDDDDFF">
<path d="M 283.996 257.638 C 274.091 262.594 266.405 270.442 261.124 280.991 L 257.000 289.232 257.000 275.616 C 257.000 262.726 257.107 261.990 259.000 261.821 C 260.443 261.693 260.373 261.623 258.750 261.571 C 256.526 261.501 256.494 261.686 256.000 277.752 C 255.725 286.690 255.838 294.003 256.250 294.002 C 256.663 294.001 257.000 293.458 257.000 292.796 C 257.000 292.134 259.005 287.471 261.455 282.434 C 267.887 269.213 275.651 261.797 288.667 256.446 C 291.875 255.127 293.773 254.037 292.884 254.024 C 291.996 254.011 287.996 255.637 283.996 257.638 "/></g>
<g fill="#DDDDDDFF">
<path d="M 345.000 105.294 C 345.000 105.549 348.488 108.364 352.750 111.549 C 368.256 123.137 383.200 139.160 393.688 155.445 C 400.924 166.679 401.853 167.290 395.294 156.501 C 384.689 139.058 368.270 121.602 350.250 108.614 C 347.363 106.532 345.000 105.038 345.000 105.294 "/></g>
<g fill="#DDDDDDFF">
<path d="M 272.500 433.140 C 269.200 433.623 257.275 433.911 246.000 433.781 C 229.394 433.589 227.196 433.707 234.428 434.405 C 244.612 435.387 274.751 434.554 280.000 433.144 C 284.568 431.918 280.866 431.916 272.500 433.140 "/></g>
<g fill="#DDDDDDFF">
<path d="M 378.437 383.107 C 370.256 391.762 351.484 405.224 336.500 413.182 C 331.550 415.811 327.950 417.963 328.500 417.964 C 330.079 417.968 344.765 409.858 352.994 404.437 C 364.226 397.038 384.719 380.000 382.387 380.000 C 381.830 380.000 380.052 381.398 378.437 383.107 "/></g>
<g fill="#DDDDDDFF">
<path d="M 138.557 97.448 C 126.293 106.816 115.903 117.000 105.858 129.500 C 100.997 135.550 97.406 140.275 97.880 140.000 C 98.353 139.725 102.427 134.892 106.933 129.259 C 115.845 118.120 127.293 107.141 139.627 97.905 C 143.957 94.662 147.388 91.782 147.250 91.505 C 147.113 91.227 143.201 93.902 138.557 97.448 "/></g>
<g fill="#DDDDDDFF">
<path d="M 104.068 363.000 C 108.496 369.800 132.342 392.565 142.000 399.211 C 153.312 406.995 152.023 405.396 140.060 396.804 C 131.896 390.940 113.253 373.220 105.550 364.000 C 102.677 360.562 102.327 360.326 104.068 363.000 "/></g>
<g fill="#DDDDDDFF">
<path d="M 376.016 362.274 C 366.639 372.381 355.972 381.532 345.000 388.883 C 340.325 392.015 336.500 394.807 336.500 395.086 C 336.500 395.365 341.127 392.500 346.783 388.718 C 356.694 382.091 378.720 362.044 382.000 356.666 C 382.825 355.314 380.132 357.837 376.016 362.274 "/></g>
<g fill="#DDDDDDFF">
<path d="M 402.874 139.042 C 410.548 149.720 418.914 164.848 423.109 175.632 C 424.895 180.222 426.533 183.801 426.749 183.584 C 427.446 182.887 421.025 167.761 416.313 159.000 C 411.404 149.871 400.866 133.963 398.338 131.866 C 397.489 131.161 399.530 134.391 402.874 139.042 "/></g>
<g fill="#DDDDDDFF">
<path d="M 419.595 247.375 C 419.647 261.873 419.977 270.492 420.345 266.978 C 421.164 259.135 421.048 233.181 420.162 226.500 C 419.798 223.750 419.543 233.144 419.595 247.375 "/></g>
<g fill="#DDDDDDFF">
<path d="M 244.250 214.631 C 245.810 215.091 245.994 216.632 245.942 228.823 L 245.885 242.500 243.192 237.006 L 240.500 231.511 242.849 238.006 C 244.140 241.578 245.579 245.400 246.045 246.500 C 246.544 247.678 246.812 241.517 246.696 231.513 C 246.509 215.334 246.405 214.516 244.500 214.320 C 242.945 214.161 242.889 214.230 244.250 214.631 "/></g>
<g fill="#DDDDDDFF">
<path d="M 113.060 346.970 C 119.631 356.338 129.077 366.922 137.120 373.930 C 143.314 379.327 142.754 378.604 133.632 369.430 C 127.654 363.419 119.818 354.563 116.217 349.750 C 108.745 339.764 106.810 338.060 113.060 346.970 "/></g>
<g fill="#DDDDDDFF">
<path d="M 81.697 232.401 C 80.879 241.667 80.952 256.017 81.859 264.500 C 82.211 267.800 82.476 260.150 82.447 247.500 C 82.411 231.603 82.179 226.940 81.697 232.401 "/></g>
<g fill="#DDDDDDFF">
<path d="M 354.000 91.241 C 354.000 91.477 358.163 94.749 363.250 98.512 C 368.338 102.275 377.990 110.787 384.701 117.427 L 396.902 129.500 387.479 119.386 C 382.296 113.824 375.006 106.798 371.278 103.773 C 363.682 97.609 354.000 90.587 354.000 91.241 "/></g>
<g fill="#DDDDDDFF">
<path d="M 236.500 77.918 C 233.200 78.238 240.175 78.480 252.000 78.456 C 267.898 78.424 271.285 78.230 265.000 77.712 C 255.694 76.946 245.791 77.017 236.500 77.918 "/></g>
<g fill="#DDDDDDFF">
<path d="M 246.209 276.500 C 246.036 287.321 245.677 291.082 244.919 290.000 C 244.116 288.853 244.029 289.088 244.547 291.000 C 246.409 297.869 247.031 294.336 246.749 278.475 L 246.448 261.500 246.209 276.500 "/></g>
<g fill="#DDDDDDFF">
<path d="M 255.797 230.501 C 255.633 239.577 255.838 247.002 256.250 247.001 C 257.154 247.000 257.190 246.141 257.004 229.103 C 256.894 218.964 257.180 215.502 258.179 214.868 C 259.188 214.228 259.098 214.027 257.797 214.015 C 256.272 214.002 256.062 215.734 255.797 230.501 "/></g>
<g fill="#DDDDDDFF">
<path d="M 256.189 184.625 C 256.085 189.644 255.710 195.269 255.356 197.125 C 254.494 201.648 255.922 200.125 258.050 194.253 C 258.997 191.639 260.125 188.639 260.556 187.586 C 261.084 186.298 260.983 185.893 260.247 186.347 C 259.646 186.719 258.782 188.480 258.327 190.261 C 257.650 192.912 257.398 191.867 256.939 184.500 L 256.378 175.500 256.189 184.625 "/></g>
<g fill="#DDDDDDFF">
<path d="M 402.710 355.566 C 398.975 360.762 393.238 367.880 389.960 371.384 C 386.682 374.888 384.000 378.135 384.000 378.600 C 384.000 380.800 407.326 351.969 408.838 347.899 C 409.202 346.920 406.444 350.370 402.710 355.566 "/></g>
<g fill="#DDDDDDFF">
<path d="M 78.000 317.556 C 78.000 319.269 89.702 342.161 93.216 347.323 C 96.333 351.901 96.374 351.927 94.029 347.823 C 92.670 345.445 88.508 337.431 84.779 330.014 C 81.051 322.596 78.000 316.990 78.000 317.556 "/></g>
<g fill="#DDDDDDFF">
<path d="M 220.384 259.236 C 230.555 266.062 237.034 273.416 241.456 283.152 C 242.792 286.094 243.911 287.888 243.942 287.140 C 244.177 281.593 229.521 263.227 221.995 259.638 C 220.073 258.722 219.348 258.540 220.384 259.236 "/></g>
<g fill="#DDDDDDFF">
<path d="M 219.980 164.537 C 226.663 168.138 234.471 175.049 238.309 180.761 C 240.497 184.018 240.498 184.018 239.086 180.997 C 236.279 174.989 225.619 165.622 217.703 162.207 C 212.409 159.923 213.513 161.052 219.980 164.537 "/></g>
<g fill="#DDDDDDFF">
<path d="M 197.512 175.000 C 198.370 181.831 203.067 190.877 208.934 197.000 L 214.205 202.500 210.002 197.500 C 204.040 190.409 200.784 184.486 198.730 177.000 C 197.231 171.539 197.036 171.219 197.512 175.000 "/></g>
<g fill="#DDDDDDFF">
<path d="M 215.000 249.404 C 215.000 249.679 217.020 251.294 219.490 252.993 C 224.850 256.681 234.770 260.538 241.000 261.357 C 244.482 261.815 243.925 261.515 238.540 260.032 C 229.936 257.662 224.753 255.436 219.250 251.751 C 216.913 250.185 215.000 249.129 215.000 249.404 "/></g>
<g fill="#DDDDDDFF">
<path d="M 251.452 475.248 L 251.500 487.500 254.750 487.444 C 257.640 487.395 257.671 487.367 255.031 487.194 L 252.062 487.000 251.733 474.998 L 251.404 462.997 251.452 475.248 "/></g>
<g fill="#DDDDDDFF">
<path d="M 257.201 382.027 C 256.979 390.358 255.296 394.010 251.693 393.985 C 249.018 393.966 247.679 393.117 246.195 390.500 C 245.571 389.400 245.047 389.063 245.030 389.750 C 244.980 391.830 248.843 395.000 251.427 395.000 C 252.870 395.000 254.711 393.911 255.966 392.316 C 257.779 390.012 258.030 388.561 257.740 382.066 L 257.402 374.500 257.201 382.027 "/></g>
<g fill="#DDDDDDFF">
<path d="M 303.741 271.121 C 302.451 276.864 298.123 285.130 293.362 290.943 L 288.811 296.500 293.563 291.500 C 298.752 286.039 304.126 275.756 304.355 270.847 L 304.500 267.741 303.741 271.121 "/></g>
<g fill="#DDDDDDFF">
<path d="M 245.531 187.548 C 245.548 193.789 245.885 199.219 246.281 199.614 C 246.676 200.010 247.000 195.110 247.000 188.726 C 247.000 182.341 246.663 176.912 246.250 176.659 C 245.838 176.407 245.514 181.307 245.531 187.548 "/></g>
<g fill="#DDDDDDFF">
<path d="M 223.500 415.965 C 225.700 416.447 231.775 417.073 237.000 417.356 C 244.652 417.771 245.236 417.718 240.000 417.084 C 227.613 415.584 219.148 415.010 223.500 415.965 "/></g>
<g fill="#DDDDDDFF">
<path d="M 234.783 130.042 C 233.331 135.192 232.768 143.974 233.525 149.657 C 234.236 154.988 234.330 154.493 234.595 144.000 C 234.755 137.675 235.024 131.375 235.193 130.000 L 235.500 127.500 234.783 130.042 "/></g>
<g fill="#DDDDDDFF">
<path d="M 290.362 246.083 C 287.536 248.603 282.277 252.194 278.674 254.061 C 275.072 255.929 272.276 257.609 272.461 257.794 C 273.501 258.834 285.843 251.165 290.288 246.717 L 295.500 241.500 290.362 246.083 "/></g>
<g fill="#DDDDDDFF">
<path d="M 267.570 142.554 C 267.613 150.465 267.901 153.944 268.309 151.500 C 269.107 146.725 269.013 136.665 268.132 132.554 C 267.784 130.934 267.532 135.434 267.570 142.554 "/></g>
<g fill="#DDDDDDFF">
<path d="M 209.160 460.240 C 208.522 460.878 208.052 462.548 208.116 463.950 C 208.208 465.965 208.325 466.080 208.675 464.500 C 209.653 460.078 210.312 459.489 210.911 462.500 C 211.409 465.001 212.048 465.552 214.754 465.813 C 217.926 466.120 217.996 466.040 217.840 462.313 C 217.685 458.621 217.667 458.603 217.277 461.750 C 216.946 464.417 216.436 465.000 214.437 465.000 C 212.520 465.000 212.000 464.479 212.000 462.559 C 212.000 459.647 210.763 458.637 209.160 460.240 "/></g>
<g fill="#DDDDDDFF">
<path d="M 268.000 416.603 L 258.500 417.899 267.000 417.375 C 275.872 416.829 286.362 415.193 280.500 415.269 C 278.850 415.291 273.225 415.891 268.000 416.603 "/></g>
<g fill="#DDDDDDFF">
<path d="M 92.308 148.184 C 90.002 151.645 87.077 156.855 85.808 159.760 C 83.923 164.074 84.251 163.709 87.601 157.771 C 95.933 142.996 96.412 142.021 92.308 148.184 "/></g>
<g fill="#DDDDDDFF">
<path d="M 276.427 473.500 C 277.304 475.931 277.263 475.476 277.118 481.184 C 277.010 485.489 276.778 485.901 274.250 486.284 C 271.690 486.671 271.725 486.711 274.750 486.850 C 277.904 486.996 278.005 486.874 278.183 482.750 C 278.470 476.100 278.173 473.766 276.893 472.590 C 275.996 471.766 275.882 471.989 276.427 473.500 "/></g>
<g fill="#DDDDDDFF">
<path d="M 260.851 459.750 C 260.573 461.538 260.718 463.000 261.173 463.000 C 261.628 463.000 262.089 466.488 262.199 470.750 L 262.397 478.500 262.736 471.500 C 262.923 467.650 262.688 462.700 262.215 460.500 L 261.355 456.500 260.851 459.750 "/></g>
<g fill="#DDDDDDFF">
<path d="M 119.352 139.280 C 118.171 140.501 114.729 145.100 111.704 149.500 C 108.679 153.900 106.946 156.739 107.852 155.810 C 108.759 154.880 112.200 150.281 115.500 145.589 C 118.800 140.898 120.534 138.059 119.352 139.280 "/></g>
<g fill="#DDDDDDFF">
<path d="M 246.067 319.748 L 246.634 330.500 246.817 319.750 C 246.918 313.838 246.663 308.999 246.250 308.998 C 245.838 308.996 245.755 313.834 246.067 319.748 "/></g>
<g fill="#DDDDDDFF">
<path d="M 412.675 298.586 C 412.222 300.189 410.523 304.826 408.899 308.891 C 407.276 312.955 406.140 316.473 406.375 316.708 C 407.016 317.349 413.153 300.982 413.339 298.138 C 413.477 296.019 413.384 296.082 412.675 298.586 "/></g>
<g fill="#DDDDDDFF">
<path d="M 245.105 109.106 C 242.868 111.915 240.918 114.856 240.769 115.643 C 240.621 116.430 242.428 114.357 244.784 111.037 C 247.141 107.716 249.816 105.000 250.730 105.000 C 251.643 105.000 253.765 106.238 255.445 107.750 L 258.500 110.500 255.563 107.250 C 253.948 105.463 251.848 104.000 250.898 104.000 C 249.948 104.000 247.341 106.298 245.105 109.106 "/></g>
<g fill="#DDDDDDFF">
<path d="M 232.425 457.334 C 232.144 458.067 232.067 462.455 232.253 467.084 L 232.593 475.500 232.796 466.323 C 232.969 458.528 233.263 457.078 234.750 456.689 C 236.390 456.261 236.388 456.225 234.719 456.116 C 233.739 456.052 232.707 456.600 232.425 457.334 "/></g>
<g fill="#DDDDDDFF">
<path d="M 270.123 221.065 C 266.398 224.676 262.934 228.862 262.425 230.367 C 261.761 232.330 262.298 231.888 264.326 228.801 C 265.881 226.436 269.345 222.250 272.024 219.500 C 274.704 216.750 273.848 217.454 270.123 221.065 "/></g>
<g fill="#DDDDDDFF">
<path d="M 424.943 313.683 C 424.251 315.782 422.378 320.425 420.780 324.000 C 419.182 327.575 418.357 330.023 418.948 329.440 C 420.390 328.014 427.301 310.968 426.686 310.352 C 426.418 310.085 425.634 311.584 424.943 313.683 "/></g>
<g fill="#DDDDDDFF">
<path d="M 196.415 206.362 C 196.127 207.111 196.056 210.374 196.257 213.612 L 196.622 219.500 196.811 212.810 L 197.000 206.121 200.750 205.728 L 204.500 205.336 200.719 205.168 C 198.323 205.062 196.746 205.499 196.415 206.362 "/></g>
<g fill="#DDDDDDFF">
<path d="M 330.000 78.616 C 335.225 81.101 339.950 83.214 340.500 83.312 C 341.050 83.409 337.173 81.354 331.884 78.745 C 326.596 76.135 321.871 74.022 321.384 74.049 C 320.898 74.076 324.775 76.131 330.000 78.616 "/></g>
<g fill="#DDDDDDFF">
<path d="M 228.683 218.356 C 232.083 221.485 235.908 225.699 237.183 227.720 C 238.457 229.741 239.372 230.650 239.216 229.740 C 238.856 227.640 229.778 217.665 225.641 214.823 C 223.913 213.636 225.282 215.226 228.683 218.356 "/></g>
<g fill="#DDDDDDFF">
<path d="M 271.500 171.381 C 268.200 174.387 264.693 178.343 263.706 180.173 C 262.146 183.068 262.138 183.175 263.645 181.000 C 264.598 179.625 268.105 175.669 271.439 172.208 L 277.500 165.917 271.500 171.381 "/></g>
<g fill="#DDDDDDFF">
<path d="M 130.500 127.229 L 121.500 136.456 130.125 128.478 C 134.869 124.090 138.919 119.938 139.125 119.251 C 139.331 118.564 135.450 122.154 130.500 127.229 "/></g>
<g fill="#DDDDDDFF">
<path d="M 67.070 277.803 C 66.989 280.457 70.012 294.321 70.554 293.780 C 70.752 293.581 70.066 289.387 69.028 284.459 C 67.990 279.532 67.109 276.536 67.070 277.803 "/></g>
<g fill="#DDDDDDFF">
<path d="M 290.945 207.450 C 288.990 208.171 285.458 209.827 283.097 211.130 C 280.247 212.703 279.929 213.027 282.151 212.094 C 283.993 211.321 288.200 209.657 291.500 208.397 C 294.800 207.136 296.825 206.112 296.000 206.123 C 295.175 206.133 292.900 206.730 290.945 207.450 "/></g>
<g fill="#DDDDDDFF">
<path d="M 68.596 206.877 C 67.718 210.737 67.032 214.931 67.070 216.197 C 67.109 217.464 67.990 214.468 69.028 209.541 C 70.066 204.613 70.752 200.419 70.554 200.220 C 70.355 200.022 69.474 203.017 68.596 206.877 "/></g>
<g fill="#DDDDDDFF">
<path d="M 299.622 187.123 C 298.589 188.980 295.737 192.975 293.285 196.000 L 288.828 201.500 293.810 196.175 C 296.550 193.247 299.402 189.252 300.146 187.298 L 301.500 183.745 299.622 187.123 "/></g>
<g fill="#DDDDDDFF">
<path d="M 163.500 393.568 C 165.808 395.409 180.005 402.688 178.500 401.259 C 177.950 400.736 173.900 398.433 169.500 396.140 C 165.100 393.848 162.400 392.690 163.500 393.568 "/></g>
<g fill="#DDDDDDFF">
<path d="M 264.709 161.008 C 264.363 162.378 262.486 166.143 260.539 169.374 C 258.591 172.604 257.709 174.656 258.580 173.934 C 260.684 172.187 266.216 161.148 265.725 159.675 C 265.512 159.037 265.055 159.637 264.709 161.008 "/></g>
<g fill="#DDDDDDFF">
<path d="M 294.000 159.307 C 288.666 160.657 290.270 160.761 298.361 159.590 C 302.947 158.926 304.432 159.042 305.187 160.121 C 305.981 161.256 306.081 161.234 305.749 160.000 C 305.238 158.100 299.991 157.791 294.000 159.307 "/></g>
<g fill="#DDDDDDFF">
<path d="M 286.175 481.250 C 286.023 484.501 285.678 485.000 283.583 485.000 C 282.254 485.000 280.940 484.438 280.662 483.750 C 280.361 483.003 280.126 483.205 280.079 484.250 C 280.018 485.604 280.806 486.000 283.557 486.000 L 287.115 486.000 286.732 481.750 L 286.349 477.500 286.175 481.250 "/></g>
<g fill="#DDDDDDFF">
<path d="M 201.500 158.984 C 211.647 160.820 213.665 161.037 211.318 160.041 C 210.118 159.532 206.293 158.882 202.818 158.597 C 196.690 158.094 196.650 158.106 201.500 158.984 "/></g>
<g fill="#DDDDDDFF">
<path d="M 161.823 82.588 C 158.151 84.439 154.863 86.413 154.516 86.974 C 154.169 87.535 157.174 86.210 161.193 84.030 C 165.212 81.849 168.500 79.875 168.500 79.643 C 168.500 79.411 165.496 80.736 161.823 82.588 "/></g>
<g fill="#DDDDDDFF">
<path d="M 245.669 457.774 C 246.311 458.183 247.027 460.089 247.259 462.009 L 247.680 465.500 247.840 461.816 C 247.979 458.616 248.360 458.078 250.750 457.716 C 252.537 457.446 251.924 457.253 249.000 457.165 C 246.525 457.091 245.026 457.365 245.669 457.774 "/></g>
<g fill="#DDDDDDFF">
<path d="M 153.500 406.775 C 154.050 407.348 157.650 409.505 161.500 411.567 C 165.350 413.630 168.050 414.866 167.500 414.315 C 166.136 412.948 152.244 405.466 153.500 406.775 "/></g>
<g fill="#DDDDDDFF">
<path d="M 217.443 204.355 C 219.555 206.277 228.340 211.017 229.717 210.977 C 230.148 210.965 227.667 209.428 224.204 207.561 C 220.741 205.695 217.345 203.793 216.657 203.334 C 215.969 202.875 216.323 203.335 217.443 204.355 "/></g>
<g fill="#DDDDDDFF">
<path d="M 171.682 96.802 L 164.864 100.500 172.509 97.026 C 176.713 95.115 179.781 93.451 179.327 93.328 C 178.872 93.205 175.432 94.768 171.682 96.802 "/></g>
<g fill="#DDDDDDFF">
<path d="M 199.189 85.211 C 195.717 86.311 193.065 87.398 193.294 87.628 C 193.524 87.857 197.039 86.954 201.106 85.621 C 205.173 84.288 207.825 83.200 207.000 83.204 C 206.175 83.208 202.660 84.111 199.189 85.211 "/></g>
<g fill="#DDDDDDFF">
<path d="M 211.500 64.477 C 204.857 66.185 207.817 66.224 216.000 64.536 C 219.575 63.799 221.150 63.195 219.500 63.194 C 217.850 63.193 214.250 63.770 211.500 64.477 "/></g>
<g fill="#DDDDDDFF">
<path d="M 293.079 464.250 C 293.021 465.537 293.776 466.000 295.934 466.000 C 298.366 466.000 298.938 466.470 299.284 468.750 C 299.671 471.310 299.711 471.275 299.850 468.250 C 299.987 465.292 299.738 465.000 297.083 465.000 C 295.479 465.000 293.940 464.438 293.662 463.750 C 293.361 463.003 293.126 463.205 293.079 464.250 "/></g>
<g fill="#DDDDDDFF">
<path d="M 231.691 306.489 C 233.446 307.297 236.821 308.191 239.191 308.477 L 243.500 308.998 238.500 307.672 C 235.750 306.944 232.375 306.049 231.000 305.684 C 229.271 305.225 229.484 305.473 231.691 306.489 "/></g>
<g fill="#DDDDDDFF">
<path d="M 286.000 297.533 C 285.175 298.292 282.025 300.274 279.000 301.938 C 275.975 303.602 273.950 304.968 274.500 304.973 C 276.154 304.987 285.771 299.163 286.667 297.605 C 287.378 296.366 287.281 296.356 286.000 297.533 "/></g>
<g fill="#DDDDDDFF">
<path d="M 415.138 203.500 C 415.083 204.600 415.665 207.750 416.430 210.500 C 417.195 213.250 417.818 214.600 417.815 213.500 C 417.805 210.626 415.257 201.106 415.138 203.500 "/></g>
<g fill="#DDDDDDFF">
<path d="M 285.500 81.559 C 288.800 82.303 292.175 82.879 293.000 82.838 C 295.346 82.720 284.805 80.191 282.000 80.198 C 280.625 80.202 282.200 80.814 285.500 81.559 "/></g>
<g fill="#DDDDDDFF">
<path d="M 213.500 81.477 C 206.796 83.201 209.940 83.265 217.500 81.559 C 220.800 80.814 222.375 80.202 221.000 80.198 C 219.625 80.195 216.250 80.770 213.500 81.477 "/></g>
<g fill="#DDDDDDFF">
<path d="M 200.531 410.495 C 202.199 411.228 205.349 412.095 207.531 412.422 C 210.215 412.824 209.395 412.377 205.000 411.043 C 197.500 408.767 196.249 408.613 200.531 410.495 "/></g>
<g fill="#DDDDDDFF">
<path d="M 151.818 385.819 C 153.643 387.436 156.418 389.376 157.986 390.129 C 159.554 390.883 158.061 389.560 154.668 387.189 C 150.972 384.607 149.830 384.057 151.818 385.819 "/></g>
<g fill="#DDDDDDFF">
<path d="M 102.000 329.603 C 102.000 330.000 103.463 332.501 105.250 335.161 L 108.500 339.998 106.000 334.926 C 103.651 330.161 102.000 327.963 102.000 329.603 "/></g>
<g fill="#DDDDDDFF">
<path d="M 211.000 293.780 C 211.000 294.295 213.363 296.293 216.250 298.220 C 219.138 300.147 220.922 301.223 220.215 300.612 C 213.812 295.073 211.000 292.989 211.000 293.780 "/></g>
<g fill="#DDDDDDFF">
<path d="M 197.071 267.068 C 196.984 268.984 199.994 279.339 200.493 278.840 C 200.689 278.644 200.016 275.562 198.996 271.992 C 197.977 268.421 197.110 266.206 197.071 267.068 "/></g>
<g fill="#DDDDDDFF">
<path d="M 197.562 223.480 C 197.900 225.668 198.794 228.593 199.548 229.980 C 201.431 233.438 201.308 232.506 198.959 225.500 C 197.338 220.667 197.066 220.274 197.562 223.480 "/></g>
<g fill="#DDDDDDFF">
<path d="M 85.067 210.067 C 84.404 213.437 84.056 216.389 84.294 216.628 C 84.533 216.866 85.270 214.304 85.933 210.933 C 86.596 207.563 86.944 204.611 86.706 204.372 C 86.467 204.134 85.730 206.696 85.067 210.067 "/></g>
<g fill="#DDDDDDFF">
<path d="M 331.500 97.688 C 332.050 98.244 335.200 100.185 338.500 102.000 C 341.800 103.815 344.050 104.832 343.500 104.260 C 342.950 103.688 339.800 101.747 336.500 99.948 C 333.200 98.148 330.950 97.131 331.500 97.688 "/></g>
<g fill="#DDDDDDFF">
<path d="M 292.500 429.523 C 289.666 430.251 288.583 430.816 290.000 430.827 C 291.375 430.838 294.300 430.253 296.500 429.528 C 301.605 427.845 299.039 427.842 292.500 429.523 "/></g>
<g fill="#DDDDDDFF">
<path d="M 206.500 429.528 C 208.700 430.253 211.625 430.843 213.000 430.838 C 214.375 430.834 213.025 430.212 210.000 429.457 C 203.125 427.742 201.197 427.780 206.500 429.528 "/></g>
<g fill="#DDDDDDFF">
<path d="M 194.500 426.000 C 197.250 427.015 200.175 427.845 201.000 427.845 C 201.825 427.845 200.250 427.015 197.500 426.000 C 194.750 424.985 191.825 424.155 191.000 424.155 C 190.175 424.155 191.750 424.985 194.500 426.000 "/></g>
<g fill="#DDDDDDFF">
<path d="M 298.000 411.005 C 294.975 411.995 292.981 412.848 293.568 412.902 C 295.185 413.050 305.649 409.759 304.500 409.464 C 303.950 409.323 301.025 410.016 298.000 411.005 "/></g>
<g fill="#DDDDDDFF">
<path d="M 264.000 307.549 C 260.975 308.241 259.625 308.848 261.000 308.898 C 263.686 308.996 272.163 306.860 270.500 306.505 C 269.950 306.387 267.025 306.857 264.000 307.549 "/></g>
<g fill="#DDDDDDFF">
<path d="M 85.648 286.000 C 85.982 288.475 86.640 291.400 87.111 292.500 C 88.149 294.924 87.095 287.734 85.865 284.000 C 85.323 282.355 85.249 283.039 85.648 286.000 "/></g>
<g fill="#DDDDDDFF">
<path d="M 416.071 285.571 C 415.384 288.642 415.015 291.348 415.250 291.584 C 415.486 291.819 416.241 289.500 416.929 286.429 C 417.616 283.358 417.985 280.652 417.750 280.416 C 417.514 280.181 416.759 282.500 416.071 285.571 "/></g>
<g fill="#DDDDDDFF">
<path d="M 427.533 186.610 C 427.815 187.770 428.696 190.695 429.490 193.110 C 430.738 196.905 430.855 197.026 430.349 194.000 C 430.028 192.075 429.147 189.150 428.393 187.500 C 427.638 185.850 427.251 185.449 427.533 186.610 "/></g>
<g fill="#DDDDDDFF">
<path d="M 303.218 177.468 C 302.513 180.109 302.130 182.464 302.368 182.702 C 303.062 183.395 305.182 176.182 304.825 174.342 C 304.646 173.421 303.923 174.828 303.218 177.468 "/></g>
<g fill="#DDDDDDFF">
<path d="M 182.000 73.291 C 178.975 74.491 176.950 75.472 177.500 75.471 C 179.303 75.470 189.525 71.677 188.500 71.390 C 187.950 71.236 185.025 72.092 182.000 73.291 "/></g>
<g fill="#DDDDDDFF">
<path d="M 282.500 64.057 C 284.700 64.512 287.400 64.866 288.500 64.843 C 290.118 64.809 290.022 64.648 288.000 64.000 C 286.625 63.560 283.925 63.206 282.000 63.215 L 278.500 63.230 282.500 64.057 "/></g>
<g fill="#DDDDDDFF">
<path d="M 269.136 458.750 C 269.249 461.018 269.347 461.116 269.698 459.309 C 270.007 457.717 270.995 457.008 273.312 456.719 C 276.375 456.336 276.353 456.314 272.750 456.160 C 269.257 456.011 269.009 456.189 269.136 458.750 "/></g>
<g fill="#DDDDDDFF">
<path d="M 281.750 455.656 C 283.498 456.031 284.045 456.905 284.200 459.570 C 284.384 462.730 284.404 462.705 284.450 459.250 C 284.494 455.946 284.203 455.481 282.000 455.336 C 279.797 455.192 279.767 455.230 281.750 455.656 "/></g>
<g fill="#DDDDDDFF">
<path d="M 387.704 348.089 L 383.907 353.500 387.447 349.500 C 389.393 347.300 391.102 344.865 391.243 344.089 C 391.384 343.313 389.792 345.113 387.704 348.089 "/></g>
<g fill="#DDDDDDFF">
<path d="M 433.218 208.000 C 433.228 209.375 433.580 211.850 434.000 213.500 L 434.763 216.500 434.782 213.500 C 434.792 211.850 434.440 209.375 434.000 208.000 L 433.199 205.500 433.218 208.000 "/></g>
<g fill="#DDDDDDFF">
<path d="M 213.750 467.720 C 215.282 468.001 216.060 468.910 216.188 470.566 C 216.331 472.435 216.390 472.361 216.438 470.250 C 216.489 467.991 216.053 467.483 214.000 467.404 C 211.825 467.320 211.792 467.361 213.750 467.720 "/></g>
<g fill="#DDDDDDFF">
<path d="M 328.644 398.871 L 323.789 401.500 328.456 399.567 C 331.022 398.503 333.207 397.320 333.311 396.938 C 333.415 396.556 331.315 397.426 328.644 398.871 "/></g>
<g fill="#DDDDDDFF">
<path d="M 74.634 308.000 C 74.971 309.375 75.862 311.850 76.613 313.500 C 77.710 315.909 77.859 316.008 77.366 314.000 C 77.029 312.625 76.138 310.150 75.387 308.500 C 74.290 306.091 74.141 305.992 74.634 308.000 "/></g>
<g fill="#DDDDDDFF">
<path d="M 429.167 300.667 C 428.490 303.198 428.113 305.446 428.330 305.663 C 428.547 305.880 429.298 304.007 430.000 301.500 C 430.702 298.993 431.078 296.745 430.837 296.503 C 430.595 296.262 429.844 298.135 429.167 300.667 "/></g>
<g fill="#DDDDDDFF">
<path d="M 71.143 296.500 C 71.153 298.586 73.802 306.250 73.909 304.500 C 73.942 303.950 73.332 301.475 72.552 299.000 C 71.772 296.525 71.138 295.400 71.143 296.500 "/></g>
<g fill="#DDDDDDFF">
<path d="M 433.821 280.833 C 433.438 287.631 433.574 288.315 434.391 283.704 C 434.859 281.066 434.962 278.628 434.620 278.287 C 434.279 277.946 433.920 279.092 433.821 280.833 "/></g>
<g fill="#DDDDDDFF">
<path d="M 206.500 206.915 C 207.600 207.348 209.850 207.976 211.500 208.310 L 214.500 208.918 211.500 207.504 C 209.850 206.726 207.600 206.098 206.500 206.108 L 204.500 206.127 206.500 206.915 "/></g>
<g fill="#DDDDDDFF">
<path d="M 72.160 192.860 C 71.522 194.989 71.031 197.355 71.070 198.116 C 71.108 198.877 71.810 197.315 72.631 194.644 C 73.451 191.974 73.942 189.608 73.721 189.388 C 73.501 189.167 72.798 190.730 72.160 192.860 "/></g>
<g fill="#DDDDDDFF">
<path d="M 241.074 185.750 C 241.115 186.163 242.014 188.300 243.072 190.500 C 244.875 194.250 244.765 192.258 242.891 187.250 C 242.092 185.115 240.915 184.143 241.074 185.750 "/></g>
<g fill="#DDDDDDFF">
<path d="M 76.615 179.615 C 75.730 182.213 75.179 184.512 75.390 184.724 C 75.602 184.935 76.499 182.983 77.385 180.385 C 78.270 177.787 78.821 175.488 78.610 175.276 C 78.398 175.065 77.501 177.017 76.615 179.615 "/></g>
<g fill="#DDDDDDFF">
<path d="M 312.500 71.387 C 314.150 72.138 316.625 73.029 318.000 73.366 C 320.008 73.859 319.909 73.710 317.500 72.613 C 315.850 71.862 313.375 70.971 312.000 70.634 C 309.992 70.141 310.091 70.290 312.500 71.387 "/></g>
<g fill="#DDDDDDFF">
<path d="M 303.000 68.552 C 305.475 69.332 307.950 69.942 308.500 69.909 C 310.250 69.802 302.586 67.153 300.500 67.143 C 299.400 67.138 300.525 67.772 303.000 68.552 "/></g>
<g fill="#DDDDDDFF">
<path d="M 307.000 425.500 C 305.075 426.241 304.175 426.848 305.000 426.848 C 305.825 426.848 308.075 426.241 310.000 425.500 C 311.925 424.759 312.825 424.152 312.000 424.152 C 311.175 424.152 308.925 424.759 307.000 425.500 "/></g>
<g fill="#DDDDDDFF">
<path d="M 319.500 421.072 C 317.300 422.130 316.625 422.715 318.000 422.373 C 320.831 421.668 326.030 419.062 324.500 419.114 C 323.950 419.133 321.700 420.014 319.500 421.072 "/></g>
<g fill="#DDDDDDFF">
<path d="M 308.500 407.536 C 306.850 408.292 306.175 408.910 307.000 408.910 C 307.825 408.910 309.850 408.292 311.500 407.536 C 313.150 406.781 313.825 406.162 313.000 406.162 C 312.175 406.162 310.150 406.781 308.500 407.536 "/></g>
<g fill="#DDDDDDFF">
<path d="M 191.500 407.536 C 193.150 408.292 195.175 408.912 196.000 408.916 C 196.825 408.919 195.986 408.264 194.135 407.461 C 189.882 405.614 187.455 405.684 191.500 407.536 "/></g>
<g fill="#DDDDDDFF">
<path d="M 97.067 319.290 C 97.030 319.724 98.013 321.892 99.250 324.106 L 101.500 328.133 99.317 323.316 C 98.116 320.667 97.103 318.855 97.067 319.290 "/></g>
<g fill="#DDDDDDFF">
<path d="M 92.114 307.500 C 92.133 308.050 93.014 310.300 94.072 312.500 C 95.130 314.700 95.715 315.375 95.373 314.000 C 94.668 311.169 92.062 305.970 92.114 307.500 "/></g>
<g fill="#DDDDDDFF">
<path d="M 265.500 259.528 C 263.300 260.253 262.400 260.861 263.500 260.878 C 264.600 260.896 266.850 260.292 268.500 259.536 C 272.279 257.806 270.739 257.801 265.500 259.528 "/></g>
<g fill="#DDDDDDFF">
<path d="M 303.464 224.500 C 302.220 230.286 302.347 231.031 303.847 226.741 C 304.570 224.674 304.973 222.424 304.743 221.741 C 304.513 221.059 303.937 222.300 303.464 224.500 "/></g>
<g fill="#DDDDDDFF">
<path d="M 276.000 208.550 C 273.525 209.848 271.855 210.930 272.290 210.955 C 273.390 211.018 281.273 206.937 280.847 206.525 C 280.656 206.341 278.475 207.252 276.000 208.550 "/></g>
<g fill="#DDDDDDFF">
<path d="M 302.000 205.563 C 303.650 205.873 305.075 206.773 305.167 207.563 C 305.258 208.354 305.371 208.213 305.417 207.250 C 305.477 205.973 304.622 205.432 302.250 205.250 C 299.046 205.004 299.042 205.008 302.000 205.563 "/></g>
<g fill="#DDDDDDFF">
<path d="M 93.866 181.683 C 91.920 187.253 92.206 188.219 94.292 183.125 C 95.277 180.719 95.885 178.551 95.642 178.308 C 95.398 178.065 94.599 179.584 93.866 181.683 "/></g>
<g fill="#DDDDDDFF">
<path d="M 406.071 177.230 C 405.956 178.414 409.214 186.120 409.646 185.687 C 409.864 185.470 409.164 183.313 408.092 180.896 C 407.019 178.478 406.109 176.828 406.071 177.230 "/></g>
<g fill="#DDDDDDFF">
<path d="M 99.180 169.992 C 97.904 172.303 97.045 174.379 97.271 174.604 C 97.497 174.830 98.541 172.940 99.591 170.403 L 101.500 165.791 99.180 169.992 "/></g>
<g fill="#DDDDDDFF">
<path d="M 186.500 89.945 C 184.300 90.986 182.950 91.841 183.500 91.845 C 184.864 91.854 192.755 88.161 191.500 88.100 C 190.950 88.074 188.700 88.904 186.500 89.945 "/></g>
<g fill="#DDDDDDFF">
<path d="M 301.000 85.500 C 302.925 86.241 305.175 86.848 306.000 86.848 C 306.825 86.848 305.925 86.241 304.000 85.500 C 302.075 84.759 299.825 84.152 299.000 84.152 C 298.175 84.152 299.075 84.759 301.000 85.500 "/></g>
<g fill="#DDDDDDFF">
<path d="M 226.000 486.109 L 222.500 486.737 226.333 486.868 C 228.442 486.941 230.017 486.658 229.833 486.241 C 229.650 485.824 227.925 485.764 226.000 486.109 "/></g>
<g fill="#DDDDDDFF">
<path d="M 210.624 482.799 C 210.216 483.460 208.671 484.036 207.191 484.079 C 205.711 484.122 205.082 484.391 205.793 484.677 C 207.792 485.479 212.189 484.067 211.754 482.762 C 211.464 481.892 211.179 481.901 210.624 482.799 "/></g>
<g fill="#DDDDDDFF">
<path d="M 278.015 466.250 C 278.024 466.938 278.467 468.175 279.000 469.000 C 279.755 470.169 279.973 469.893 279.985 467.750 C 279.993 466.238 279.550 465.000 279.000 465.000 C 278.450 465.000 278.007 465.563 278.015 466.250 "/></g>
<g fill="#DDDDDDFF">
<path d="M 277.966 458.750 C 277.521 464.184 277.580 464.607 278.394 461.829 C 278.825 460.360 278.964 458.335 278.705 457.329 C 278.411 456.192 278.131 456.730 277.966 458.750 "/></g>
<g fill="#DDDDDDFF">
<path d="M 394.357 338.161 C 393.178 339.997 392.793 341.165 393.500 340.755 C 394.208 340.345 395.172 338.843 395.643 337.416 C 396.356 335.258 396.139 335.384 394.357 338.161 "/></g>
<g fill="#DDDDDDFF">
<path d="M 402.840 323.000 C 401.941 324.925 401.585 326.396 402.048 326.268 C 402.512 326.141 403.248 324.566 403.684 322.768 L 404.476 319.500 402.840 323.000 "/></g>
<g fill="#DDDDDDFF">
<path d="M 89.621 300.500 C 89.978 302.150 90.665 304.175 91.149 305.000 C 91.711 305.960 91.794 305.420 91.379 303.500 C 91.022 301.850 90.335 299.825 89.851 299.000 C 89.289 298.040 89.206 298.580 89.621 300.500 "/></g>
<g fill="#DDDDDDFF">
<path d="M 211.000 255.500 C 215.566 257.258 217.362 257.232 213.500 255.464 C 211.850 254.708 209.825 254.104 209.000 254.121 C 208.175 254.138 209.075 254.759 211.000 255.500 "/></g>
<g fill="#DDDDDDFF">
<path d="M 302.750 252.720 C 303.988 252.947 305.075 253.778 305.167 254.566 C 305.258 255.355 305.371 255.213 305.417 254.250 C 305.474 253.051 304.712 252.470 303.000 252.404 C 300.825 252.320 300.792 252.361 302.750 252.720 "/></g>
<g fill="#DDDDDDFF">
<path d="M 210.000 245.000 L 214.000 249.000 210.000 245.000 L 206.000 241.000 210.000 245.000 "/></g>
<g fill="#DDDDDDFF">
<path d="M 90.100 191.600 C 89.525 193.683 89.234 195.568 89.454 195.788 C 89.674 196.008 90.325 194.483 90.900 192.400 C 91.475 190.317 91.766 188.432 91.546 188.212 C 91.326 187.992 90.675 189.517 90.100 191.600 "/></g>
<g fill="#DDDDDDFF">
<path d="M 410.157 187.500 C 410.154 188.050 410.759 190.075 411.500 192.000 C 412.241 193.925 412.862 194.825 412.879 194.000 C 412.896 193.175 412.292 191.150 411.536 189.500 C 410.781 187.850 410.160 186.950 410.157 187.500 "/></g>
<g fill="#DDDDDDFF">
<path d="M 240.444 169.687 C 241.292 171.439 242.484 173.181 243.093 173.557 C 244.434 174.386 242.988 171.537 240.525 168.500 C 239.020 166.644 239.014 166.729 240.444 169.687 "/></g>
<g fill="#DDDDDDFF">
<path d="M 81.169 168.718 C 79.321 173.388 79.389 174.722 81.263 170.584 C 82.233 168.444 82.856 166.523 82.648 166.314 C 82.440 166.106 81.774 167.188 81.169 168.718 "/></g>
<g fill="#DDDDDDFF">
<path d="M 144.842 114.515 L 141.500 117.530 144.842 114.515 L 148.184 111.500 144.842 114.515 "/></g>
<g fill="#DDDDDDFF">
<path d="M 160.000 103.391 C 158.075 104.551 157.175 105.391 158.000 105.258 C 158.825 105.126 160.400 104.177 161.500 103.150 C 163.165 101.596 162.913 101.637 160.000 103.391 "/></g>
<g fill="#DDDDDDFF">
<path d="M 323.464 93.942 C 323.757 94.415 325.363 95.279 327.032 95.861 C 328.702 96.444 329.829 96.532 329.536 96.058 C 329.243 95.585 327.637 94.721 325.968 94.139 C 324.298 93.556 323.171 93.468 323.464 93.942 "/></g>
<g fill="#DDDDDDFF">
<path d="M 217.116 483.750 C 217.027 485.482 217.518 485.973 219.250 485.884 C 220.844 485.802 221.008 485.638 219.811 485.323 C 218.883 485.077 217.923 484.117 217.677 483.189 C 217.362 481.992 217.198 482.156 217.116 483.750 "/></g>
<g fill="#DDDDDDFF">
<path d="M 240.188 478.500 C 240.084 479.875 239.550 481.068 239.000 481.150 C 238.450 481.233 238.563 481.345 239.250 481.400 C 239.985 481.459 240.474 480.366 240.438 478.750 C 240.385 476.448 240.344 476.407 240.188 478.500 "/></g>
<g fill="#DDDDDDFF">
<path d="M 294.116 473.250 C 294.198 474.844 294.362 475.008 294.677 473.811 C 294.923 472.883 295.883 471.923 296.811 471.677 C 298.008 471.362 297.844 471.198 296.250 471.116 C 294.518 471.027 294.027 471.518 294.116 473.250 "/></g>
<g fill="#DDDDDDFF">
<path d="M 265.189 456.677 C 266.117 456.923 267.077 457.883 267.323 458.811 C 267.638 460.008 267.802 459.844 267.884 458.250 C 267.973 456.518 267.482 456.027 265.750 456.116 C 264.156 456.198 263.992 456.362 265.189 456.677 "/></g>
<g fill="#DDDDDDFF">
<path d="M 97.948 354.685 C 98.527 355.887 99.632 357.237 100.404 357.685 C 101.176 358.133 100.702 357.150 99.351 355.500 C 97.721 353.509 97.249 353.235 97.948 354.685 "/></g>
<g fill="#DDDDDDFF">
<path d="M 415.895 334.606 L 414.500 338.255 416.324 335.034 C 417.327 333.263 417.955 331.621 417.719 331.386 C 417.483 331.150 416.663 332.599 415.895 334.606 "/></g>
<g fill="#DDDDDDFF">
<path d="M 202.467 282.937 C 203.302 284.552 204.440 286.154 204.995 286.497 C 205.549 286.840 205.058 285.518 203.903 283.560 C 201.370 279.267 200.338 278.819 202.467 282.937 "/></g>
<g fill="#DDDDDDFF">
<path d="M 259.028 236.426 C 257.542 240.335 257.836 240.950 259.618 237.662 C 260.464 236.100 260.909 234.576 260.606 234.273 C 260.304 233.970 259.593 234.939 259.028 236.426 "/></g>
<g fill="#DDDDDDFF">
<path d="M 202.467 235.937 C 203.302 237.552 204.440 239.154 204.995 239.497 C 205.549 239.840 205.058 238.518 203.903 236.560 C 201.370 232.267 200.338 231.819 202.467 235.937 "/></g>
<g fill="#DDDDDDFF">
<path d="M 266.500 212.000 L 264.500 212.859 266.500 212.914 C 267.600 212.945 269.175 212.533 270.000 212.000 C 271.333 211.138 271.333 211.037 270.000 211.086 C 269.175 211.116 267.600 211.527 266.500 212.000 "/></g>
<g fill="#DDDDDDFF">
<path d="M 232.000 212.000 C 232.825 212.533 234.400 212.945 235.500 212.914 L 237.500 212.859 235.500 212.000 C 234.400 211.527 232.825 211.116 232.000 211.086 C 230.667 211.037 230.667 211.138 232.000 212.000 "/></g>
<g fill="#DDDDDDFF">
<path d="M 285.210 203.407 L 282.920 205.500 285.210 203.407 L 287.500 201.315 285.210 203.407 "/></g>
<g fill="#DDDDDDFF">
<path d="M 402.068 169.300 C 402.030 169.739 402.788 171.462 403.750 173.127 C 405.453 176.072 405.454 176.051 403.818 172.327 C 402.892 170.222 402.105 168.860 402.068 169.300 "/></g>
<g fill="#DDDDDDFF">
<path d="M 281.629 163.792 C 278.775 165.490 278.780 165.492 282.528 164.050 C 284.602 163.252 285.894 162.484 285.399 162.342 C 284.905 162.201 283.208 162.853 281.629 163.792 "/></g>
<g fill="#DDDDDDFF">
<path d="M 236.075 160.000 C 236.071 161.441 238.892 167.166 238.965 165.865 C 238.984 165.515 238.343 163.715 237.539 161.865 C 236.736 160.014 236.077 159.175 236.075 160.000 "/></g>
<g fill="#DDDDDDFF">
<path d="M 263.035 119.135 C 263.016 119.485 263.657 121.285 264.461 123.135 C 265.264 124.986 265.923 125.825 265.925 125.000 C 265.929 123.559 263.108 117.834 263.035 119.135 "/></g>
<g fill="#DDDDDDFF">
<path d="M 238.185 119.832 C 237.462 121.086 237.060 122.648 237.291 123.305 C 237.522 123.962 238.114 122.937 238.606 121.027 C 239.417 117.875 239.378 117.765 238.185 119.832 "/></g>
<g fill="#DDDDDDFF">
<path d="M 260.175 114.404 C 261.737 116.941 262.226 117.346 261.665 115.641 C 261.206 114.246 260.159 112.547 259.340 111.867 C 258.520 111.186 258.896 112.328 260.175 114.404 "/></g>
<g fill="#DDDDDDFF">
<path d="M 314.000 89.831 C 314.825 90.341 316.625 91.059 318.000 91.427 C 319.737 91.892 320.042 91.813 319.000 91.169 C 318.175 90.659 316.375 89.941 315.000 89.573 C 313.263 89.108 312.958 89.187 314.000 89.831 "/></g>
<g fill="#DDDDDDFF">
<path d="M 342.000 84.474 C 342.000 84.735 343.463 85.662 345.250 86.535 L 348.500 88.120 346.000 86.082 C 343.593 84.120 342.000 83.480 342.000 84.474 "/></g>
<g fill="#DDDDDDFF">
<path d="M 197.500 68.000 C 194.952 69.095 197.581 69.095 201.000 68.000 C 203.010 67.356 203.108 67.194 201.500 67.170 C 200.400 67.154 198.600 67.527 197.500 68.000 "/></g>
</svg>
