<?xml version="1.0" encoding="utf-8"?>
<!DOCTYPE svg PUBLIC "-//W3C//DTD SVG 20010904//EN" "http://www.w3.org/TR/2001/REC-SVG-20010904/DTD/svg10.dtd">
<svg version="1.0" xmlns="http://www.w3.org/2000/svg" width="502pt" height="502pt" viewBox="0 0 502 502" style="" preserveAspectRatio="xMidYMid meet">
<g fill="#202021FF">
<path d="M 232.000 60.177 C 208.214 62.213 179.095 71.214 157.864 83.092 C 114.529 107.337 81.711 147.701 67.689 194.000 C 61.327 215.005 60.544 221.233 60.521 251.000 C 60.498 280.882 60.850 283.828 67.146 306.428 C 85.032 370.634 138.694 421.513 205.906 437.992 C 224.325 442.508 232.193 443.445 251.500 443.421 C 276.128 443.391 296.349 439.791 318.500 431.494 C 349.609 419.843 380.006 398.159 400.426 373.051 C 448.199 314.313 456.643 230.917 421.732 162.621 C 391.919 104.299 333.088 65.292 267.050 60.065 C 251.963 58.870 247.074 58.886 232.000 60.177 M 269.144 76.053 C 322.282 81.456 369.984 110.490 398.852 155.000 C 410.700 173.267 418.732 192.923 423.639 215.654 C 426.195 227.499 426.415 230.253 426.452 251.000 C 426.488 270.665 426.202 274.943 424.177 284.954 C 418.519 312.941 408.775 335.295 392.991 356.500 C 375.719 379.704 355.307 396.474 328.500 409.484 C 301.850 422.417 280.108 427.441 251.000 427.390 C 214.370 427.327 182.065 417.211 150.500 395.920 C 135.206 385.603 114.950 365.382 105.153 350.650 C 65.721 291.354 65.166 214.624 103.736 154.500 C 120.816 127.876 146.536 105.399 175.196 92.054 C 205.093 78.133 236.684 72.752 269.144 76.053 "/></g>
<g fill="#202021FF">
<path d="M 273.303 125.983 C 261.053 128.593 246.423 137.390 237.003 147.810 C 225.391 160.654 218.821 178.316 217.404 200.500 C 216.164 219.913 210.638 231.293 193.295 250.148 C 187.908 256.005 181.564 264.038 179.197 268.000 C 170.984 281.749 166.144 301.745 167.324 317.052 C 168.151 327.768 169.584 333.143 174.215 342.899 C 181.101 357.408 194.845 369.035 210.423 373.533 C 219.004 376.010 235.076 375.168 244.242 371.760 C 262.412 365.006 276.774 351.187 286.505 331.098 C 293.408 316.845 294.991 308.358 295.435 283.204 C 295.899 256.931 297.487 252.814 316.055 229.744 C 330.968 211.215 335.678 184.521 328.091 161.525 C 323.750 148.364 312.609 135.381 300.563 129.443 C 294.753 126.579 292.081 125.884 285.500 125.525 C 281.100 125.286 275.611 125.492 273.303 125.983 "/></g>
<g fill="#202021FF">
<path d="M 245.000 474.500 L 245.000 489.000 247.500 489.000 C 249.934 489.000 250.000 488.811 250.000 481.833 C 250.000 477.892 250.223 474.890 250.495 475.162 C 250.768 475.435 251.573 478.547 252.285 482.079 C 253.465 487.935 253.818 488.528 256.290 488.816 L 259.000 489.133 259.000 474.566 L 259.000 460.000 256.500 460.000 C 254.087 460.000 253.998 460.234 253.937 466.750 C 253.868 474.083 252.740 473.116 251.468 464.632 C 250.826 460.353 250.553 460.000 247.886 460.000 L 245.000 460.000 245.000 474.500 "/></g>
<g fill="#202021FF">
<path d="M 230.552 461.250 C 229.629 465.522 227.000 483.745 227.000 485.869 C 227.000 487.475 227.616 488.000 229.500 488.000 C 231.308 488.000 232.000 487.463 232.000 486.059 C 232.000 484.991 232.414 483.862 232.919 483.550 C 233.781 483.017 234.617 483.689 237.789 487.465 C 241.035 491.328 241.515 489.342 240.863 474.752 C 240.512 466.913 240.174 460.163 240.113 459.750 C 240.051 459.338 237.984 459.000 235.519 459.000 C 231.683 459.000 230.968 459.324 230.552 461.250 M 234.475 479.352 C 233.123 478.833 232.978 477.687 233.558 472.118 C 234.561 462.477 235.458 462.322 235.790 471.734 C 236.045 478.953 235.882 479.892 234.475 479.352 "/></g>
<g fill="#202021FF">
<path d="M 261.505 470.750 C 262.392 485.573 263.163 487.402 268.699 487.805 C 272.243 488.063 273.134 487.725 274.531 485.593 C 275.944 483.437 276.077 481.351 275.462 471.038 C 274.745 459.027 274.737 459.000 272.221 459.000 L 269.700 459.000 270.368 470.816 C 270.735 477.314 270.731 482.935 270.360 483.307 C 268.823 484.843 267.000 481.496 266.993 477.128 C 266.989 474.582 266.699 469.463 266.348 465.750 C 265.751 459.424 265.557 459.000 263.257 459.000 L 260.803 459.000 261.505 470.750 "/></g>
<g fill="#202021FF">
<path d="M 199.897 455.313 C 199.702 455.668 195.263 483.500 195.381 483.626 C 195.446 483.695 196.515 484.063 197.755 484.445 C 200.308 485.230 200.541 484.811 201.487 477.746 C 202.064 473.436 202.333 473.046 204.375 473.558 C 208.361 474.558 211.241 471.133 211.770 464.765 C 212.186 459.740 212.001 459.054 209.866 457.719 C 207.919 456.502 200.259 454.653 199.897 455.313 M 206.801 464.163 C 207.091 466.589 204.570 469.903 203.356 468.689 C 203.028 468.361 203.065 466.468 203.437 464.482 C 204.200 460.419 206.328 460.216 206.801 464.163 "/></g>
<g fill="#202021FF">
<path d="M 292.655 457.829 C 291.745 458.835 291.000 461.123 291.000 462.915 C 291.000 465.557 292.040 467.172 296.500 471.457 C 299.525 474.364 302.000 477.508 302.000 478.444 C 302.000 480.999 298.562 479.915 298.180 477.240 C 297.950 475.622 297.186 475.000 295.430 475.000 C 293.440 475.000 293.000 475.503 293.000 477.777 C 293.000 482.348 295.546 485.000 299.934 485.000 C 304.791 485.000 306.500 482.977 306.500 477.226 C 306.500 473.076 306.117 472.422 301.098 467.997 C 297.216 464.574 295.878 462.762 296.341 461.554 C 297.049 459.708 299.000 460.344 299.000 462.420 C 299.000 463.270 299.868 463.557 301.500 463.245 C 304.385 462.693 304.637 461.354 302.443 458.223 C 300.481 455.421 295.033 455.201 292.655 457.829 "/></g>
<g fill="#202021FF">
<path d="M 214.976 459.000 C 214.965 459.825 214.334 466.350 213.573 473.500 C 212.813 480.650 212.261 486.550 212.346 486.611 C 212.431 486.672 215.118 487.017 218.318 487.378 L 224.136 488.033 223.818 485.267 C 223.564 483.059 222.922 482.434 220.640 482.173 C 218.030 481.875 217.834 481.580 218.390 478.798 C 218.726 477.122 219.000 475.434 219.000 475.048 C 219.000 474.662 220.350 474.545 222.000 474.787 C 224.680 475.180 225.000 474.949 225.000 472.613 C 225.000 470.542 224.516 470.000 222.667 470.000 C 219.570 470.000 219.264 469.563 219.800 465.911 C 220.206 463.141 220.562 462.855 223.127 463.232 C 225.693 463.609 226.000 463.362 226.000 460.919 C 226.000 458.313 225.742 458.169 220.499 457.843 C 216.130 457.571 214.993 457.809 214.976 459.000 "/></g>
<g fill="#202021FF">
<path d="M 281.009 457.891 C 277.752 458.333 276.423 459.000 276.172 460.321 C 275.951 461.486 276.557 462.333 277.856 462.673 C 280.132 463.268 280.602 464.980 281.519 476.000 C 282.366 486.180 282.678 487.000 285.695 487.000 C 288.098 487.000 288.218 486.767 287.650 483.213 C 287.317 481.129 286.743 475.504 286.375 470.713 C 285.773 462.885 285.879 462.000 287.422 462.000 C 288.629 462.000 289.044 461.334 288.820 459.760 C 288.462 457.254 287.464 457.015 281.009 457.891 "/></g>
<g fill="#DEDEDEFF">
<path d="M 88.000 318.657 C 88.000 321.031 99.899 343.021 106.009 351.937 C 112.051 360.756 133.714 384.619 134.743 383.590 C 134.999 383.335 132.217 380.328 128.561 376.908 C 114.711 363.952 103.867 349.129 94.268 330.031 C 90.820 323.173 88.000 318.055 88.000 318.657 "/></g>
<g fill="#DEDEDEFF">
<path d="M 252.683 464.030 C 252.355 466.797 252.489 470.060 252.980 471.280 C 253.641 472.924 253.890 471.748 253.937 466.750 C 253.998 460.234 254.087 460.000 256.500 460.000 L 259.000 460.000 259.000 474.613 L 259.000 489.227 256.000 488.787 C 254.350 488.545 253.000 488.718 253.000 489.173 C 253.000 490.513 259.026 490.118 259.457 488.750 C 259.674 488.063 260.048 481.088 260.289 473.250 L 260.727 459.000 257.003 459.000 L 253.279 459.000 252.683 464.030 "/></g>
<g fill="#DEDEDEFF">
<path d="M 441.847 228.500 C 442.696 238.897 442.685 265.299 441.828 275.500 C 441.238 282.517 441.290 282.947 442.250 279.000 C 443.686 273.097 443.704 229.800 442.273 224.500 C 441.362 221.125 441.295 221.750 441.847 228.500 "/></g>
<g fill="#DEDEDEFF">
<path d="M 379.000 371.947 C 365.936 385.084 356.866 392.240 339.007 403.500 L 335.835 405.500 339.668 403.611 C 351.295 397.878 372.672 380.802 382.435 369.447 C 387.875 363.120 387.522 363.378 379.000 371.947 "/></g>
<g fill="#DEDEDEFF">
<path d="M 59.627 226.705 C 59.282 229.221 59.000 240.154 59.000 251.000 C 59.000 261.846 59.282 272.779 59.627 275.295 C 59.972 277.811 60.254 266.878 60.254 251.000 C 60.254 235.122 59.972 224.189 59.627 226.705 "/></g>
<g fill="#DEDEDEFF">
<path d="M 354.000 88.275 C 354.275 88.575 356.975 90.500 360.000 92.553 C 373.027 101.394 388.388 115.509 399.879 129.196 C 405.011 135.309 405.152 135.409 401.500 130.345 C 395.335 121.798 378.538 105.276 368.000 97.396 C 359.971 91.392 352.241 86.356 354.000 88.275 "/></g>
<g fill="#DEDEDEFF">
<path d="M 244.224 474.250 L 244.500 489.500 247.500 489.500 C 250.382 489.500 250.526 489.287 251.160 484.093 C 251.523 481.120 251.439 477.745 250.973 476.593 C 250.391 475.153 250.107 476.760 250.063 481.750 C 250.002 488.800 249.931 489.000 247.500 489.000 L 245.000 489.000 245.000 474.563 L 245.000 460.127 248.250 459.723 C 251.428 459.329 251.416 459.317 247.724 459.160 L 243.948 459.000 244.224 474.250 "/></g>
<g fill="#DEDEDEFF">
<path d="M 410.112 360.184 C 400.618 373.851 391.121 384.061 370.223 403.067 C 369.276 403.929 370.525 403.121 373.000 401.271 C 384.919 392.360 411.327 362.899 413.862 355.684 C 414.213 354.686 412.526 356.711 410.112 360.184 "/></g>
<g fill="#DEDEDEFF">
<path d="M 100.064 371.887 C 106.203 379.997 119.276 393.081 129.283 401.130 C 134.746 405.524 139.403 408.930 139.633 408.700 C 139.864 408.470 136.586 405.673 132.350 402.485 C 124.350 396.463 111.164 383.857 102.033 373.500 C 98.830 369.867 98.054 369.230 100.064 371.887 "/></g>
<g fill="#DEDEDEFF">
<path d="M 128.303 125.000 C 118.029 134.875 105.821 149.779 102.833 156.096 C 102.100 157.646 103.635 155.793 106.245 151.976 C 112.908 142.234 120.791 132.898 130.709 123.000 C 135.394 118.325 134.311 119.225 128.303 125.000 "/></g>
<g fill="#DEDEDEFF">
<path d="M 201.871 239.245 C 199.876 241.585 195.459 246.425 192.057 250.000 C 185.732 256.646 176.304 269.778 175.787 272.660 C 175.629 273.543 177.282 271.249 179.461 267.563 C 181.639 263.876 187.846 256.054 193.254 250.180 C 198.663 244.306 203.630 238.485 204.294 237.245 C 204.957 236.005 203.867 236.905 201.871 239.245 "/></g>
<g fill="#DEDEDEFF">
<path d="M 302.248 130.094 C 309.695 134.235 318.524 143.060 323.250 151.086 C 325.313 154.589 327.000 156.940 327.000 156.311 C 327.000 153.900 316.736 139.968 312.227 136.259 C 305.573 130.785 301.891 128.369 299.000 127.580 C 297.625 127.205 299.087 128.336 302.248 130.094 "/></g>
<g fill="#DEDEDEFF">
<path d="M 259.500 59.480 C 278.662 61.013 282.283 61.120 276.500 59.985 C 274.300 59.553 265.750 58.957 257.500 58.660 L 242.500 58.121 259.500 59.480 "/></g>
<g fill="#DEDEDEFF">
<path d="M 269.185 463.750 L 269.370 469.500 269.737 464.250 C 270.073 459.447 270.313 459.000 272.552 459.000 C 274.890 459.000 275.008 459.303 275.175 465.750 C 275.301 470.614 275.456 471.312 275.732 468.250 C 276.053 464.683 276.468 463.990 278.307 463.937 C 280.455 463.875 280.451 463.854 278.136 462.927 C 276.434 462.245 275.918 461.423 276.292 459.990 C 276.746 458.254 276.314 458.000 272.906 458.000 L 269.000 458.000 269.185 463.750 "/></g>
<g fill="#DEDEDEFF">
<path d="M 114.830 115.500 L 99.807 130.500 114.830 115.500 L 129.854 100.500 114.830 115.500 "/></g>
<g fill="#DEDEDEFF">
<path d="M 274.576 350.045 C 268.900 356.960 263.305 361.758 255.281 366.590 C 252.166 368.465 250.116 370.000 250.725 370.000 C 251.334 370.000 255.228 367.729 259.378 364.953 C 266.561 360.149 275.767 351.069 278.316 346.273 C 278.967 345.048 277.284 346.745 274.576 350.045 "/></g>
<g fill="#DEDEDEFF">
<path d="M 327.500 93.422 C 333.550 96.366 340.975 100.362 344.000 102.303 C 347.025 104.243 349.405 105.472 349.289 105.034 C 348.980 103.861 334.660 95.637 325.807 91.546 C 313.947 86.067 315.173 87.425 327.500 93.422 "/></g>
<g fill="#DEDEDEFF">
<path d="M 170.546 337.000 C 172.243 343.229 177.955 351.947 184.634 358.500 L 191.768 365.500 184.980 358.374 C 180.334 353.497 176.878 348.604 174.028 342.874 C 171.738 338.268 170.171 335.625 170.546 337.000 "/></g>
<g fill="#DEDEDEFF">
<path d="M 291.250 458.211 C 290.013 459.402 289.000 460.709 289.000 461.115 C 289.000 461.521 288.213 462.059 287.250 462.311 C 285.933 462.655 286.057 462.797 287.750 462.884 C 289.130 462.955 290.000 463.640 290.000 464.655 C 290.000 465.565 291.819 468.040 294.042 470.155 C 296.265 472.270 297.503 474.077 296.792 474.171 C 296.081 474.265 296.176 474.394 297.001 474.458 C 297.827 474.522 299.177 474.947 300.001 475.402 C 300.826 475.857 299.138 473.998 296.250 471.271 C 291.902 467.164 291.002 465.727 291.014 462.906 C 291.022 461.033 291.584 458.722 292.264 457.772 C 292.944 456.822 292.488 457.019 291.250 458.211 "/></g>
<g fill="#DEDEDEFF">
<path d="M 172.743 278.787 C 169.920 285.677 166.993 297.170 167.090 300.980 C 167.153 303.411 167.583 302.283 168.481 297.334 C 169.196 293.393 170.836 287.093 172.126 283.334 C 174.892 275.277 175.243 272.687 172.743 278.787 "/></g>
<g fill="#DEDEDEFF">
<path d="M 425.779 264.500 C 425.383 269.450 424.832 275.750 424.554 278.500 L 424.050 283.500 425.047 279.000 C 425.596 276.525 426.147 270.225 426.272 265.000 L 426.500 255.500 425.779 264.500 "/></g>
<g fill="#DEDEDEFF">
<path d="M 216.692 199.000 C 216.248 204.225 215.677 210.075 215.424 212.000 C 215.066 214.718 215.169 215.038 215.882 213.432 C 216.388 212.294 216.958 206.444 217.150 200.432 L 217.500 189.500 216.692 199.000 "/></g>
<g fill="#DEDEDEFF">
<path d="M 262.781 128.399 C 256.383 131.031 247.845 136.249 245.827 138.762 C 245.097 139.671 246.075 139.268 248.000 137.867 C 253.999 133.500 259.120 130.707 265.423 128.363 C 268.765 127.121 270.825 126.091 270.000 126.076 C 269.175 126.060 265.927 127.106 262.781 128.399 "/></g>
<g fill="#DEDEDEFF">
<path d="M 172.474 93.425 C 166.438 96.408 160.600 99.539 159.500 100.382 C 158.400 101.224 163.779 98.783 171.454 94.957 C 179.128 91.131 184.966 88.000 184.427 88.000 C 183.888 88.000 178.509 90.441 172.474 93.425 "/></g>
<g fill="#DEDEDEFF">
<path d="M 321.682 222.054 C 320.840 223.458 316.965 228.633 313.069 233.554 C 309.174 238.474 306.265 242.428 306.605 242.340 C 307.912 242.002 320.068 226.323 321.600 223.000 C 322.857 220.272 322.875 220.063 321.682 222.054 "/></g>
<g fill="#DEDEDEFF">
<path d="M 294.695 300.500 C 293.405 314.924 293.423 315.903 294.840 308.500 C 295.577 304.650 296.027 299.250 295.840 296.500 C 295.551 292.254 295.379 292.858 294.695 300.500 "/></g>
<g fill="#DEDEDEFF">
<path d="M 93.982 139.350 C 90.947 143.346 87.572 148.482 86.482 150.765 C 85.266 153.310 86.158 152.321 88.789 148.207 C 91.148 144.518 94.523 139.382 96.289 136.792 C 98.055 134.203 97.017 135.354 93.982 139.350 "/></g>
<g fill="#DEDEDEFF">
<path d="M 277.000 442.030 C 274.525 442.482 270.250 442.957 267.500 443.086 C 263.391 443.278 263.112 443.394 265.934 443.737 C 267.823 443.967 273.223 443.570 277.934 442.857 C 282.645 442.143 285.375 441.480 284.000 441.384 C 282.625 441.288 279.475 441.579 277.000 442.030 "/></g>
<g fill="#DEDEDEFF">
<path d="M 234.727 465.024 C 234.305 465.862 234.372 469.687 234.876 473.524 L 235.792 480.500 235.643 472.000 C 235.561 467.289 235.153 464.179 234.727 465.024 "/></g>
<g fill="#DEDEDEFF">
<path d="M 220.000 442.000 C 221.925 442.508 227.100 443.141 231.500 443.407 C 238.592 443.835 238.819 443.800 233.500 443.097 C 220.201 441.339 216.286 441.020 220.000 442.000 "/></g>
<g fill="#DEDEDEFF">
<path d="M 221.000 424.975 C 222.925 425.487 227.875 426.130 232.000 426.402 C 238.697 426.844 238.911 426.808 234.000 426.062 C 230.975 425.602 226.025 424.960 223.000 424.634 C 218.476 424.148 218.121 424.208 221.000 424.975 "/></g>
<g fill="#DEDEDEFF">
<path d="M 70.606 320.000 C 71.464 323.476 77.074 336.391 77.990 337.000 C 78.650 337.438 73.646 324.965 70.969 319.500 C 70.127 317.780 70.076 317.850 70.606 320.000 "/></g>
<g fill="#DEDEDEFF">
<path d="M 76.601 272.500 C 76.887 276.900 77.498 282.075 77.958 284.000 C 79.230 289.318 79.045 285.608 77.485 274.500 L 76.080 264.500 76.601 272.500 "/></g>
<g fill="#DEDEDEFF">
<path d="M 77.697 220.502 C 77.346 222.701 76.833 227.875 76.559 232.000 C 76.126 238.488 76.254 238.084 77.508 229.000 C 78.888 219.009 79.041 212.080 77.697 220.502 "/></g>
<g fill="#DEDEDEFF">
<path d="M 274.500 124.882 C 272.850 125.237 276.450 125.496 282.500 125.457 C 289.865 125.410 292.178 125.161 289.500 124.704 C 284.803 123.903 278.714 123.975 274.500 124.882 "/></g>
<g fill="#DEDEDEFF">
<path d="M 274.500 77.584 C 280.000 78.342 284.950 78.819 285.500 78.644 C 286.944 78.184 271.518 75.981 267.709 76.103 C 265.944 76.160 269.000 76.826 274.500 77.584 "/></g>
<g fill="#DEDEDEFF">
<path d="M 225.000 60.019 C 223.075 60.434 226.000 60.538 231.500 60.249 C 237.000 59.961 241.688 59.561 241.917 59.362 C 242.676 58.702 228.563 59.250 225.000 60.019 "/></g>
<g fill="#DEDEDEFF">
<path d="M 272.500 425.591 L 264.500 426.901 271.500 426.395 C 275.350 426.117 280.075 425.510 282.000 425.047 C 287.435 423.739 281.860 424.058 272.500 425.591 "/></g>
<g fill="#DEDEDEFF">
<path d="M 375.242 127.000 C 379.642 131.400 383.515 135.000 383.848 135.000 C 384.181 135.000 380.874 131.400 376.500 127.000 C 372.126 122.600 368.253 119.000 367.895 119.000 C 367.536 119.000 370.842 122.600 375.242 127.000 "/></g>
<g fill="#DEDEDEFF">
<path d="M 226.500 76.500 C 225.950 76.689 223.321 77.137 220.658 77.496 C 217.995 77.856 215.989 78.323 216.200 78.533 C 216.411 78.744 221.065 78.307 226.542 77.561 C 232.658 76.729 234.764 76.197 232.000 76.182 C 229.525 76.169 227.050 76.312 226.500 76.500 "/></g>
<g fill="#DEDEDEFF">
<path d="M 316.785 413.859 C 311.992 415.862 308.951 417.394 310.026 417.263 C 312.543 416.959 327.586 410.660 326.398 410.408 C 325.904 410.304 321.578 411.856 316.785 413.859 "/></g>
<g fill="#DEDEDEFF">
<path d="M 74.280 173.544 C 72.509 177.386 70.934 181.532 70.780 182.758 C 70.626 183.983 72.072 181.276 73.993 176.743 C 78.381 166.388 78.575 164.226 74.280 173.544 "/></g>
<g fill="#DEDEDEFF">
<path d="M 172.706 427.509 C 176.669 429.433 180.828 431.119 181.948 431.254 C 183.069 431.389 180.276 429.925 175.743 428.000 C 164.869 423.383 163.877 423.222 172.706 427.509 "/></g>
<g fill="#DEDEDEFF">
<path d="M 409.451 328.254 L 405.500 337.439 409.836 328.639 C 412.221 323.799 413.999 319.665 413.787 319.454 C 413.576 319.242 411.625 323.203 409.451 328.254 "/></g>
<g fill="#DEDEDEFF">
<path d="M 138.254 386.629 C 139.769 388.208 143.449 391.075 146.431 393.000 C 150.229 395.452 149.404 394.592 143.676 390.129 C 139.179 386.625 136.739 385.050 138.254 386.629 "/></g>
<g fill="#DEDEDEFF">
<path d="M 291.182 320.500 C 291.081 321.050 289.638 324.376 287.975 327.892 C 286.311 331.408 285.141 334.474 285.373 334.706 C 286.003 335.336 291.142 323.813 291.262 321.500 C 291.320 320.400 291.284 319.950 291.182 320.500 "/></g>
<g fill="#DEDEDEFF">
<path d="M 304.369 245.201 C 302.697 247.120 297.999 256.731 298.007 258.217 C 298.010 258.923 299.698 255.991 301.757 251.701 C 303.815 247.412 304.991 244.487 304.369 245.201 "/></g>
<g fill="#DEDEDEFF">
<path d="M 196.125 418.382 C 196.960 419.319 211.051 423.282 211.599 422.734 C 211.835 422.498 208.985 421.492 205.264 420.498 C 201.544 419.505 197.825 418.465 197.000 418.187 C 196.175 417.909 195.781 417.997 196.125 418.382 "/></g>
<g fill="#DEDEDEFF">
<path d="M 194.497 366.996 C 195.406 368.467 206.919 374.007 209.000 373.975 C 209.825 373.963 207.906 372.886 204.736 371.582 C 201.566 370.279 197.799 368.443 196.363 367.502 C 194.928 366.562 194.088 366.334 194.497 366.996 "/></g>
<g fill="#DEDEDEFF">
<path d="M 432.362 186.750 C 434.505 194.305 436.422 199.912 436.750 199.584 C 437.270 199.064 433.066 185.000 432.390 185.000 C 432.101 185.000 432.089 185.788 432.362 186.750 "/></g>
<g fill="#DEDEDEFF">
<path d="M 338.500 79.737 C 340.239 81.382 353.173 88.089 352.497 86.996 C 352.142 86.421 348.622 84.339 344.676 82.371 C 340.729 80.402 337.950 79.217 338.500 79.737 "/></g>
<g fill="#DEDEDEFF">
<path d="M 326.439 74.490 C 330.805 76.396 334.528 77.805 334.711 77.622 C 335.183 77.150 321.247 70.997 319.741 71.012 C 319.059 71.019 322.072 72.584 326.439 74.490 "/></g>
<g fill="#DEDEDEFF">
<path d="M 204.000 461.976 C 204.000 462.604 204.450 462.840 205.000 462.500 C 205.565 462.151 206.000 462.970 206.000 464.382 C 206.000 467.644 204.269 468.688 203.708 465.765 C 203.331 463.805 203.254 463.870 203.136 466.250 C 203.061 467.763 203.395 469.000 203.878 469.000 C 205.501 469.000 207.156 466.129 206.827 463.883 C 206.492 461.600 204.000 459.919 204.000 461.976 "/></g>
<g fill="#DEDEDEFF">
<path d="M 150.500 415.775 C 151.050 416.348 154.650 418.505 158.500 420.567 C 162.350 422.630 165.050 423.866 164.500 423.315 C 163.136 421.948 149.244 414.466 150.500 415.775 "/></g>
<g fill="#DEDEDEFF">
<path d="M 420.667 296.167 C 419.726 300.085 419.138 303.471 419.359 303.693 C 419.580 303.914 420.544 300.902 421.500 297.000 C 422.456 293.098 423.045 289.711 422.807 289.474 C 422.570 289.237 421.607 292.249 420.667 296.167 "/></g>
<g fill="#DEDEDEFF">
<path d="M 221.828 171.639 C 220.909 173.845 219.893 177.416 219.570 179.575 C 219.161 182.314 219.603 181.537 221.034 177.000 C 223.642 168.735 223.974 166.490 221.828 171.639 "/></g>
<g fill="#DEDEDEFF">
<path d="M 422.938 164.750 C 425.117 169.013 426.923 172.151 426.950 171.725 C 427.019 170.650 420.091 157.000 419.475 157.000 C 419.201 157.000 420.759 160.488 422.938 164.750 "/></g>
<g fill="#DEDEDEFF">
<path d="M 237.788 145.967 C 234.646 149.160 231.946 152.254 231.788 152.843 C 231.630 153.432 234.200 150.820 237.500 147.039 L 243.500 140.163 237.788 145.967 "/></g>
<g fill="#DEDEDEFF">
<path d="M 156.227 83.306 L 148.954 87.500 156.039 84.000 C 159.935 82.075 163.208 80.188 163.312 79.806 C 163.415 79.424 160.227 80.999 156.227 83.306 "/></g>
<g fill="#DEDEDEFF">
<path d="M 212.199 462.500 C 212.171 464.150 212.509 467.525 212.949 470.000 C 213.540 473.319 213.763 473.713 213.801 471.500 C 213.829 469.850 213.491 466.475 213.051 464.000 C 212.460 460.681 212.237 460.287 212.199 462.500 "/></g>
<g fill="#DEDEDEFF">
<path d="M 80.000 341.387 C 80.000 341.665 81.688 344.642 83.750 348.002 L 87.500 354.112 84.500 347.988 C 81.852 342.583 80.000 339.866 80.000 341.387 "/></g>
<g fill="#DEDEDEFF">
<path d="M 167.202 323.000 C 167.175 324.925 167.776 328.300 168.538 330.500 C 169.882 334.386 169.903 334.400 169.285 331.000 C 168.935 329.075 168.334 325.700 167.949 323.500 L 167.250 319.500 167.202 323.000 "/></g>
<g fill="#DEDEDEFF">
<path d="M 438.158 295.013 C 437.454 298.422 437.091 301.424 437.352 301.685 C 437.973 302.307 440.258 291.273 439.795 289.885 C 439.599 289.296 438.862 291.604 438.158 295.013 "/></g>
<g fill="#DEDEDEFF">
<path d="M 424.685 226.500 C 424.994 230.350 425.416 233.688 425.623 233.917 C 426.318 234.685 425.894 227.543 425.004 223.500 C 424.328 220.426 424.254 221.120 424.685 226.500 "/></g>
<g fill="#DEDEDEFF">
<path d="M 437.106 202.000 C 437.094 202.825 437.736 205.975 438.533 209.000 L 439.981 214.500 439.409 209.618 C 438.837 204.726 437.146 199.135 437.106 202.000 "/></g>
<g fill="#DEDEDEFF">
<path d="M 86.200 189.388 C 84.949 192.626 84.081 195.742 84.271 196.312 C 84.610 197.330 88.479 186.461 88.476 184.500 C 88.475 183.950 87.451 186.149 86.200 189.388 "/></g>
<g fill="#DEDEDEFF">
<path d="M 295.500 438.477 C 292.561 439.233 291.530 439.780 293.000 439.804 C 294.375 439.827 297.300 439.253 299.500 438.528 C 304.632 436.837 302.012 436.803 295.500 438.477 "/></g>
<g fill="#DEDEDEFF">
<path d="M 201.500 437.936 C 202.600 438.381 205.525 439.016 208.000 439.348 L 212.500 439.951 207.500 438.495 C 202.119 436.928 198.077 436.551 201.500 437.936 "/></g>
<g fill="#DEDEDEFF">
<path d="M 360.835 409.500 C 357.719 411.700 356.516 412.849 358.161 412.054 C 359.807 411.258 362.356 409.458 363.827 408.054 C 365.297 406.649 363.951 407.300 360.835 409.500 "/></g>
<g fill="#DEDEDEFF">
<path d="M 433.667 311.667 C 432.773 314.807 432.231 317.565 432.462 317.795 C 432.693 318.026 433.625 315.658 434.533 312.533 C 435.442 309.408 435.984 306.650 435.738 306.405 C 435.492 306.159 434.560 308.527 433.667 311.667 "/></g>
<g fill="#DEDEDEFF">
<path d="M 66.100 305.568 C 65.948 307.196 69.074 317.259 69.576 316.757 C 69.818 316.516 69.157 313.659 68.108 310.409 C 67.058 307.159 66.155 304.981 66.100 305.568 "/></g>
<g fill="#DEDEDEFF">
<path d="M 141.724 92.229 L 135.948 96.500 141.550 93.024 C 144.630 91.112 147.229 89.190 147.325 88.753 C 147.421 88.315 144.901 89.879 141.724 92.229 "/></g>
<g fill="#DEDEDEFF">
<path d="M 226.160 485.250 C 226.005 488.875 226.108 488.995 229.250 488.850 C 232.188 488.715 232.242 488.661 229.809 488.289 C 227.646 487.959 227.039 487.252 226.719 484.689 C 226.336 481.624 226.314 481.645 226.160 485.250 "/></g>
<g fill="#DEDEDEFF">
<path d="M 264.250 458.631 C 265.529 459.008 266.056 460.337 266.208 463.573 L 266.417 468.000 266.458 463.264 C 266.494 459.247 266.196 458.496 264.500 458.321 C 262.946 458.161 262.890 458.230 264.250 458.631 "/></g>
<g fill="#DEDEDEFF">
<path d="M 89.428 357.500 C 90.369 359.150 92.505 362.075 94.175 364.000 C 96.622 366.822 96.479 366.435 93.432 362.000 C 88.927 355.443 87.051 353.336 89.428 357.500 "/></g>
<g fill="#DEDEDEFF">
<path d="M 80.144 293.500 C 80.156 295.986 82.757 304.064 82.880 302.000 C 82.929 301.175 82.332 298.475 81.552 296.000 C 80.772 293.525 80.138 292.400 80.144 293.500 "/></g>
<g fill="#DEDEDEFF">
<path d="M 63.162 294.000 C 63.154 296.424 65.727 305.509 65.853 303.500 C 65.887 302.950 65.298 300.025 64.543 297.000 C 63.788 293.975 63.166 292.625 63.162 294.000 "/></g>
<g fill="#DEDEDEFF">
<path d="M 419.120 200.000 C 419.071 200.825 419.668 203.525 420.448 206.000 C 421.228 208.475 421.862 209.600 421.856 208.500 C 421.844 206.014 419.243 197.936 419.120 200.000 "/></g>
<g fill="#DEDEDEFF">
<path d="M 329.508 202.000 C 328.198 208.573 328.361 210.147 329.835 205.175 C 330.541 202.796 330.957 200.096 330.761 199.175 C 330.564 198.254 330.000 199.525 329.508 202.000 "/></g>
<g fill="#DEDEDEFF">
<path d="M 67.612 191.324 C 66.624 194.527 66.031 197.364 66.295 197.628 C 66.767 198.100 69.490 188.453 69.436 186.500 C 69.421 185.950 68.600 188.121 67.612 191.324 "/></g>
<g fill="#DEDEDEFF">
<path d="M 328.075 160.500 C 328.082 161.050 328.751 163.750 329.561 166.500 L 331.034 171.500 330.481 167.096 C 329.994 163.224 328.038 157.863 328.075 160.500 "/></g>
<g fill="#DEDEDEFF">
<path d="M 227.632 159.477 C 226.055 162.007 224.705 164.691 224.632 165.443 C 224.560 166.194 225.850 164.124 227.500 160.843 L 230.500 154.877 227.632 159.477 "/></g>
<g fill="#DEDEDEFF">
<path d="M 410.189 142.818 C 412.560 146.294 413.884 147.843 413.132 146.262 C 412.379 144.680 410.439 141.837 408.821 139.943 C 407.115 137.948 407.691 139.158 410.189 142.818 "/></g>
<g fill="#DEDEDEFF">
<path d="M 295.000 81.552 C 297.475 82.332 300.175 82.929 301.000 82.880 C 303.064 82.757 294.986 80.156 292.500 80.144 C 291.400 80.138 292.525 80.772 295.000 81.552 "/></g>
<g fill="#DEDEDEFF">
<path d="M 203.500 81.472 C 201.300 82.197 200.175 82.831 201.000 82.880 C 201.825 82.929 204.525 82.332 207.000 81.552 C 209.475 80.772 210.600 80.138 209.500 80.144 C 208.400 80.149 205.700 80.747 203.500 81.472 "/></g>
<g fill="#DEDEDEFF">
<path d="M 274.238 485.990 C 273.384 487.358 271.788 488.051 269.242 488.160 L 265.500 488.320 268.844 488.730 C 272.135 489.134 276.406 486.719 275.771 484.813 C 275.618 484.355 274.929 484.885 274.238 485.990 "/></g>
<g fill="#DEDEDEFF">
<path d="M 293.000 481.623 C 293.000 483.953 296.812 486.141 300.156 485.730 L 303.500 485.320 299.807 485.160 C 297.243 485.049 295.637 484.320 294.557 482.777 C 293.701 481.555 293.000 481.035 293.000 481.623 "/></g>
<g fill="#DEDEDEFF">
<path d="M 297.500 420.472 C 295.300 421.197 294.400 421.803 295.500 421.819 C 296.600 421.835 299.075 421.241 301.000 420.500 C 305.505 418.765 302.746 418.743 297.500 420.472 "/></g>
<g fill="#DEDEDEFF">
<path d="M 211.366 224.199 L 209.500 229.500 211.834 224.667 C 213.117 222.009 213.957 219.623 213.699 219.366 C 213.442 219.109 212.392 221.284 211.366 224.199 "/></g>
<g fill="#DEDEDEFF">
<path d="M 81.000 206.000 C 80.326 208.809 79.973 211.307 80.217 211.550 C 80.460 211.793 81.193 209.676 81.846 206.846 C 82.499 204.016 82.852 201.519 82.630 201.296 C 82.407 201.074 81.674 203.191 81.000 206.000 "/></g>
<g fill="#DEDEDEFF">
<path d="M 188.188 68.683 C 185.816 69.522 184.052 70.385 184.268 70.601 C 184.484 70.817 187.099 70.128 190.080 69.070 C 193.061 68.012 194.825 67.149 194.000 67.152 C 193.175 67.155 190.559 67.844 188.188 68.683 "/></g>
<g fill="#DEDEDEFF">
<path d="M 202.500 64.472 C 197.130 66.242 199.244 66.311 205.500 64.570 C 208.250 63.805 209.600 63.173 208.500 63.166 C 207.400 63.159 204.700 63.747 202.500 64.472 "/></g>
<g fill="#DEDEDEFF">
<path d="M 270.073 479.000 C 269.880 482.025 270.039 483.760 270.427 482.855 C 270.816 481.951 270.974 479.476 270.779 477.355 C 270.474 474.043 270.375 474.275 270.073 479.000 "/></g>
<g fill="#DEDEDEFF">
<path d="M 230.015 459.750 C 230.025 460.898 230.286 461.098 230.774 460.331 C 231.183 459.689 233.089 458.973 235.009 458.741 C 238.336 458.340 238.300 458.313 234.250 458.160 C 230.803 458.030 230.003 458.331 230.015 459.750 "/></g>
<g fill="#DEDEDEFF">
<path d="M 297.737 455.722 C 299.581 455.952 301.625 457.054 302.487 458.285 C 303.319 459.473 304.000 459.965 304.000 459.377 C 304.000 457.351 300.334 455.000 297.421 455.160 C 294.536 455.318 294.540 455.325 297.737 455.722 "/></g>
<g fill="#DEDEDEFF">
<path d="M 349.201 416.892 C 345.127 419.363 345.090 419.427 348.485 418.099 C 350.456 417.329 352.390 416.155 352.784 415.491 C 353.178 414.827 351.565 415.457 349.201 416.892 "/></g>
<g fill="#DEDEDEFF">
<path d="M 421.000 343.000 L 418.674 347.843 421.000 343.000 L 423.326 338.157 421.000 343.000 "/></g>
<g fill="#DEDEDEFF">
<path d="M 415.615 312.615 C 414.730 315.213 414.179 317.512 414.390 317.724 C 414.602 317.935 415.499 315.983 416.385 313.385 C 417.270 310.787 417.821 308.488 417.610 308.276 C 417.398 308.065 416.501 310.017 415.615 312.615 "/></g>
<g fill="#DEDEDEFF">
<path d="M 84.634 309.000 C 84.971 310.375 85.862 312.850 86.613 314.500 C 87.710 316.909 87.859 317.008 87.366 315.000 C 87.029 313.625 86.138 311.150 85.387 309.500 C 84.290 307.091 84.141 306.992 84.634 309.000 "/></g>
<g fill="#DEDEDEFF">
<path d="M 414.634 187.000 C 414.971 188.375 415.862 190.850 416.613 192.500 C 417.710 194.909 417.859 195.008 417.366 193.000 C 417.029 191.625 416.138 189.150 415.387 187.500 C 414.290 185.091 414.141 184.992 414.634 187.000 "/></g>
<g fill="#DEDEDEFF">
<path d="M 392.041 146.407 C 393.920 149.024 395.889 151.431 396.417 151.757 C 396.944 152.084 395.838 150.209 393.959 147.593 C 392.080 144.976 390.111 142.569 389.583 142.243 C 389.056 141.916 390.162 143.791 392.041 146.407 "/></g>
<g fill="#DEDEDEFF">
<path d="M 308.500 85.387 C 310.150 86.138 312.625 87.029 314.000 87.366 C 316.008 87.859 315.909 87.710 313.500 86.613 C 311.850 85.862 309.375 84.971 308.000 84.634 C 305.992 84.141 306.091 84.290 308.500 85.387 "/></g>
<g fill="#DEDEDEFF">
<path d="M 190.188 85.688 C 187.816 86.524 186.052 87.385 186.268 87.601 C 186.484 87.817 188.866 87.243 191.562 86.324 C 194.257 85.406 196.021 84.545 195.481 84.410 C 194.942 84.276 192.559 84.851 190.188 85.688 "/></g>
<g fill="#DEDEDEFF">
<path d="M 308.500 67.915 C 309.600 68.348 311.850 68.976 313.500 69.310 L 316.500 69.918 313.500 68.504 C 311.850 67.726 309.600 67.098 308.500 67.108 L 306.500 67.127 308.500 67.915 "/></g>
<g fill="#DEDEDEFF">
<path d="M 219.581 469.131 C 219.876 469.609 221.216 470.000 222.559 470.000 C 223.988 470.000 225.069 470.622 225.167 471.500 C 225.264 472.380 225.368 472.294 225.417 471.291 C 225.473 470.140 224.446 469.366 222.272 468.922 C 220.496 468.559 219.285 468.653 219.581 469.131 "/></g>
<g fill="#DEDEDEFF">
<path d="M 296.415 461.138 C 295.963 461.869 296.124 462.041 296.845 461.595 C 297.536 461.168 298.000 461.532 298.000 462.500 C 298.000 463.518 297.536 463.847 296.750 463.387 C 296.063 462.985 296.400 463.604 297.500 464.763 C 298.600 465.922 299.218 466.398 298.873 465.822 C 298.529 465.245 298.455 463.975 298.710 462.999 C 299.258 460.904 297.460 459.446 296.415 461.138 "/></g>
<g fill="#DEDEDEFF">
<path d="M 322.500 430.072 C 320.300 431.130 319.625 431.715 321.000 431.373 C 323.831 430.668 329.030 428.062 327.500 428.114 C 326.950 428.133 324.700 429.014 322.500 430.072 "/></g>
<g fill="#DEDEDEFF">
<path d="M 335.000 424.550 C 332.525 425.848 330.855 426.930 331.290 426.955 C 332.390 427.018 340.273 422.937 339.847 422.525 C 339.656 422.341 337.475 423.252 335.000 424.550 "/></g>
<g fill="#DEDEDEFF">
<path d="M 158.896 401.374 C 159.520 402.126 161.627 403.362 163.579 404.121 C 166.511 405.260 166.313 405.022 162.445 402.754 C 159.869 401.243 158.272 400.622 158.896 401.374 "/></g>
<g fill="#DEDEDEFF">
<path d="M 242.000 372.500 C 239.708 373.383 239.190 373.862 240.500 373.888 C 241.600 373.911 243.625 373.286 245.000 372.500 C 248.117 370.718 246.627 370.718 242.000 372.500 "/></g>
<g fill="#DEDEDEFF">
<path d="M 325.636 213.636 C 324.689 215.623 324.132 217.466 324.399 217.732 C 324.665 217.998 325.590 216.523 326.455 214.455 C 328.495 209.572 327.872 208.949 325.636 213.636 "/></g>
<g fill="#DEDEDEFF">
<path d="M 63.444 205.444 C 63.068 207.451 62.985 209.318 63.260 209.593 C 63.535 209.868 64.068 208.451 64.444 206.444 C 64.821 204.438 64.904 202.571 64.629 202.296 C 64.354 202.021 63.821 203.438 63.444 205.444 "/></g>
<g fill="#DEDEDEFF">
<path d="M 294.000 64.000 C 295.375 64.440 297.400 64.814 298.500 64.830 L 300.500 64.859 298.500 64.000 C 297.400 63.527 295.375 63.154 294.000 63.170 L 291.500 63.199 294.000 64.000 "/></g>
<g fill="#DEDEDEFF">
<path d="M 223.600 485.483 C 223.655 487.399 223.992 488.674 224.350 488.317 C 225.254 487.413 225.168 482.000 224.250 481.999 C 223.838 481.999 223.545 483.567 223.600 485.483 "/></g>
<g fill="#DEDEDEFF">
<path d="M 313.000 433.500 C 311.075 434.241 310.175 434.862 311.000 434.879 C 311.825 434.896 313.850 434.292 315.500 433.536 C 319.362 431.768 317.566 431.742 313.000 433.500 "/></g>
<g fill="#DEDEDEFF">
<path d="M 187.500 433.536 C 189.150 434.292 191.175 434.896 192.000 434.879 C 192.825 434.862 191.925 434.241 190.000 433.500 C 185.434 431.742 183.638 431.768 187.500 433.536 "/></g>
<g fill="#DEDEDEFF">
<path d="M 143.500 411.452 C 145.150 412.857 147.117 414.117 147.871 414.253 C 148.625 414.389 147.275 413.239 144.871 411.699 C 140.750 409.058 140.672 409.044 143.500 411.452 "/></g>
<g fill="#DEDEDEFF">
<path d="M 282.357 339.161 C 281.178 340.997 280.793 342.165 281.500 341.755 C 282.208 341.345 283.172 339.843 283.643 338.416 C 284.356 336.258 284.139 336.384 282.357 339.161 "/></g>
<g fill="#DEDEDEFF">
<path d="M 410.084 176.500 C 410.084 177.050 410.946 179.075 412.000 181.000 C 413.054 182.925 413.916 184.050 413.916 183.500 C 413.916 182.950 413.054 180.925 412.000 179.000 C 410.946 177.075 410.084 175.950 410.084 176.500 "/></g>
<g fill="#DEDEDEFF">
<path d="M 428.579 177.000 C 428.944 178.375 429.624 180.175 430.091 181.000 C 430.845 182.333 430.939 182.333 430.934 181.000 C 430.931 180.175 430.251 178.375 429.423 177.000 L 427.917 174.500 428.579 177.000 "/></g>
<g fill="#DEDEDEFF">
<path d="M 90.737 178.416 C 89.767 180.556 89.144 182.477 89.352 182.686 C 89.760 183.093 91.749 178.457 92.216 176.012 C 92.372 175.194 91.707 176.275 90.737 178.416 "/></g>
<g fill="#DEDEDEFF">
<path d="M 94.750 169.700 C 93.788 171.461 93.000 173.248 93.000 173.673 C 93.000 175.091 95.809 170.456 96.157 168.464 C 96.356 167.325 95.765 167.845 94.750 169.700 "/></g>
<g fill="#DEDEDEFF">
<path d="M 81.500 160.000 L 79.682 163.850 81.500 160.000 L 83.318 156.150 81.500 160.000 "/></g>
<g fill="#DEDEDEFF">
<path d="M 170.000 76.000 C 168.075 77.054 166.950 77.916 167.500 77.916 C 168.050 77.916 170.075 77.054 172.000 76.000 C 173.925 74.946 175.050 74.084 174.500 74.084 C 173.950 74.084 171.925 74.946 170.000 76.000 "/></g>
<g fill="#DEDEDEFF">
<path d="M 282.015 486.250 C 282.004 487.524 282.748 487.968 284.750 487.884 C 286.858 487.795 287.033 487.651 285.500 487.268 C 284.400 486.993 283.169 486.258 282.765 485.634 C 282.299 484.914 282.025 485.139 282.015 486.250 "/></g>
<g fill="#DEDEDEFF">
<path d="M 211.079 469.193 C 211.036 470.125 210.000 471.587 208.777 472.443 C 207.555 473.299 207.035 474.000 207.623 474.000 C 209.321 474.000 212.257 470.245 211.682 468.808 C 211.332 467.934 211.132 468.062 211.079 469.193 "/></g>
<g fill="#DEDEDEFF">
<path d="M 220.015 464.750 C 220.025 465.861 220.299 466.086 220.765 465.366 C 221.169 464.742 222.400 464.007 223.500 463.732 C 225.033 463.349 224.858 463.205 222.750 463.116 C 220.748 463.032 220.004 463.476 220.015 464.750 "/></g>
<g fill="#DEDEDEFF">
<path d="M 186.000 414.831 C 186.825 415.341 188.625 416.059 190.000 416.427 C 191.737 416.892 192.042 416.813 191.000 416.169 C 190.175 415.659 188.375 414.941 187.000 414.573 C 185.263 414.108 184.958 414.187 186.000 414.831 "/></g>
<g fill="#DEDEDEFF">
<path d="M 330.629 407.792 C 327.775 409.490 327.780 409.492 331.528 408.050 C 333.602 407.252 334.894 406.484 334.399 406.342 C 333.905 406.201 332.208 406.853 330.629 407.792 "/></g>
<g fill="#DEDEDEFF">
<path d="M 169.441 407.532 C 170.509 408.339 171.859 408.986 172.441 408.968 C 173.024 408.951 172.626 408.276 171.559 407.468 C 170.491 406.661 169.141 406.014 168.559 406.032 C 167.976 406.049 168.374 406.724 169.441 407.532 "/></g>
<g fill="#DEDEDEFF">
<path d="M 429.426 323.703 C 428.148 328.090 428.368 328.814 429.885 325.218 C 430.646 323.413 431.038 321.704 430.755 321.421 C 430.472 321.138 429.874 322.165 429.426 323.703 "/></g>
<g fill="#DEDEDEFF">
<path d="M 406.032 168.559 C 406.014 169.141 406.661 170.491 407.468 171.559 C 408.276 172.626 408.951 173.024 408.968 172.441 C 408.986 171.859 408.339 170.509 407.532 169.441 C 406.724 168.374 406.049 167.976 406.032 168.559 "/></g>
<g fill="#DEDEDEFF">
<path d="M 178.500 72.535 C 175.999 73.740 175.916 73.878 178.000 73.369 C 180.834 72.677 184.018 71.053 182.500 71.076 C 181.950 71.084 180.150 71.740 178.500 72.535 "/></g>
</svg>
